<?xml version="1.0" encoding="utf-8"?>
<!-- Generator: Adobe Illustrator 25.4.1, SVG Export Plug-In . SVG Version: 6.00 Build 0)  -->
<svg version="1.1" id="Слой_1" xmlns="http://www.w3.org/2000/svg" xmlns:xlink="http://www.w3.org/1999/xlink" x="0px" y="0px"
	 viewBox="0 0 982.5 539.9" style="enable-background:new 0 0 982.5 539.9;" xml:space="preserve">
<style type="text/css">
	.st0{fill:#FEFEFE;}
	.st1{fill:#503E8D;}
	.st2{fill:#D98EF4;}
	.st3{enable-background:new    ;}
</style>
<path class="st0" d="M416.2,13.1c-2.9,0.7-5.8,1.8-8.7,2c-22.6,1.3-44.1,7.3-64.7,16.3c-55.5,24.1-83,70.2-75,127.7
	c5,36,19,67.5,52.9,86.3c1.4,1,2.7,2.1,3.9,3.3c-0.5,2.4,0.7,4.4,1.8,6.3c11.6,19.8,25.2,37.9,43.1,52.8
	c31.1,25.9,66.8,38.8,107,40.8c22.9,1.1,44.9-3.6,66.1-11.4c40.2-14.7,70.8-41.3,91.7-78.8c5.3-9.3,9.3-19.4,11.8-29.8
	c2.5-0.4,4.2,1.1,6.2,2.1c13.9,6.6,29.2,4.5,40.1-5.5c11.2-10.3,15-26.1,8.7-40.3c-2.1-4.7-1.5-7.1,1.7-10.9
	c16.4-18.9,14.4-47.6-4.5-64c-12.4-10.7-29.6-14-45-8.4c-6.6,2.4-11.4,1.6-15.9-3.4c-5.3-17-17-30-28.3-42.7
	c-16.4-18.2-37-32.2-60-40.8c-23.8-9-48.4-16.2-74.2-14.2C454.8,1.9,434.9,5.1,416.2,13.1z"/>
<path class="st0" d="M90.8,517.2c0.8,5.3-0.3,9.8,1.3,14.1s3.6,8,9,6.9c5-1,5.9-5,5.3-9.2c-1.4-10.7-0.4-21.3-0.1-32
	c0.1-4.1,0.3-8.2-4.8-9.6c-4.9-1.4-7.9,0.9-10.5,4.9c-3,4.4-4.8,9.7-9.4,13.8c-2.4-5.5-4.6-10.4-6.7-15.3c-1.3-2.9-2.9-5.1-6.5-5.1
	c-4.1,0.1-5.7,2.9-6.5,6.1c-3.2,11.5-4.8,23.3-6.3,35.1c-0.5,3.8,0.6,7.2,4.9,7.9c4.7,0.8,5.6-2.9,6.8-6.2s0.8-7.7,3.6-10.8
	C78.9,525.4,80.4,525.4,90.8,517.2z"/>
<path class="st0" d="M580.2,507.1c0.2,7.9,1.6,15.7,4.3,23.1c1.8,4.8,3.9,9.8,10.3,8.3c5.8-1.3,4.6-6.2,3.8-10.3
	c-0.5-2.8,0.9-4,3.1-5.1c2.5-1.3,3.6,0.3,4.9,1.8c1.8,2.4,4.2,4.3,7,5.4c3.5,1.3,7.1,1.5,9.3-2.1s0-6.1-3-7.9
	c-5.3-3.2-6.5-6.7-3.3-12.8c5.3-10.1,1-19.3-9.4-22.2C589.4,480.2,580.1,486.9,580.2,507.1z"/>
<path class="st0" d="M192,503c-1.8-3.6-0.4-6.2-0.7-8.9c-0.3-3.2-1.2-5.9-4.8-6.5c-2.9-0.7-5.9,1.2-6.5,4.1c0,0.2-0.1,0.4-0.1,0.5
	c-2,11.3-4.2,22.6-2.5,34.1c0.4,2.2,1.2,4.3,2.5,6.1c1.6,2.3,4.2,3.7,7.2,2.7c2.6-0.8,2.8-3.2,3-5.5c0.2-2.5,0.4-5,0.9-7.4
	c0.4-1.9,0.9-4.2,3.2-4.6s2.6,1.9,3.6,3.2c2.9,3.7,5.6,7.6,8.7,11.2c3.6,4.2,8.2,6.5,12.7,1.7c4.6-5,1.3-9.2-2.7-12.7
	c-2.8-2.5-5.8-4.7-8.4-7.3c-3.7-3.5-4.4-6.9,0.8-10c3.6-2.2,7.1-4.7,10.4-7.3c2.8-2.1,3.1-5.2,1.8-8.1s-4.2-4.2-7.5-3.6
	c-3,0.6-5.7,2.1-7.8,4.2C201.2,493.4,196.8,498,192,503z"/>
<path class="st0" d="M729,514.2c5.2,7.6,9.2,13.6,13.4,19.4c2.2,3.1,5.1,5.7,9.5,4.5c3.8-1,5.3-4.2,6.3-7.7
	c3.1-10.7,5.1-21.7,6.9-32.8c0.9-5.6,0.5-11.3-5.9-12.7c-6.5-1.4-7.2,4.9-8.4,9.2s-1.5,8.8-2.5,13.2c-0.5,2.2,0.7,5-0.7,5.9
	c-5.5-5-10.8-9.5-15.8-14.3c-3.5-3.2-6.4-2.5-8.5,1.1c-5.3,9-7.2,19-6.5,29.3c0.2,2.8,1.7,5.5,5.1,5.4c2.8-0.1,4.3-2.4,4.8-5
	C727.4,525.4,728,520.8,729,514.2z"/>
<path class="st0" d="M278.5,514.1c5.3,7.6,9.1,13.6,13.4,19.2c2.2,3,4.9,5.9,9.3,4.9s5.7-4.6,6.7-8.2c3.1-11,5.3-22.2,6.8-33.6
	c0.6-5.2-0.1-10.1-5.7-11.4c-6.1-1.4-7.3,4.2-8.3,8.4c-1.7,6.8-2.7,13.8-4.2,21.5c-4.9-5.3-9.1-10.1-13.7-14.5
	c-5.2-5-8.1-4.6-11.3,1.9c-3.9,8.1-5.7,17.1-5.3,26.1c0.1,3.3,1.3,6.3,4.8,6.5c3.8,0.3,4.8-3.2,5.4-6.1
	C277.2,524.7,277.6,520.5,278.5,514.1z"/>
<path class="st0" d="M921,496.5c0.1-5,0.4-8.9-4.5-9.4s-6.6,3.7-7.1,7.2c-1.4,9-6,12.6-15.2,13.5c-6,0.6-7-0.4-5.9-5.7
	c0.7-3.6,3.8-9-1.2-10.4s-5.8,4.9-7.7,8.4c-0.4,0.9-0.7,1.9-0.9,2.8c-1.3,4.9-2,10-7.6,12.7c-2.6,1.3-3.9,5.4-0.1,7.2
	c3.5,1.7,4.4,4.3,5.4,7.4s3.3,4,6.4,3.7s4.4-2.4,4-5.2c-1.4-9.8,5.8-9,11.8-10c4.2-0.6,6.6,0.2,6.3,5.3c-0.3,4,1.1,8,3.8,11
	c3,3.1,7.5,4.2,8.9-0.7c2-7.2,3.5-15.2,3.4-22.3C921,506.7,920.3,500.8,921,496.5z"/>
<path class="st0" d="M548.8,488.5c-12.5-0.1-21.5,3.7-21.2,18.4c0.3,3.1-1.7,6-4.7,6.7c-2,0.5-3.4,2.4-3.4,4.5
	c0.2,2.3,2.2,3.4,4.3,3.2c3.7-0.4,4.7,2,5.3,4.8c1.4,6.6,3.8,12.8,11.5,13.8c8.5,1.1,15.5-2.6,21.4-8.4c1.6-1.3,2.1-3.5,1.4-5.5
	c-0.8-2.2-2.9-2.3-5-2.5c-4.6-0.4-8.9,1-13.2,1.8c-2.5,0.4-4.2,0.8-4.7-2.5c-0.3-2.4-0.6-4.5,2.4-5.3c1.9-0.4,3.8-1,5.7-1.7
	c2.7-1.1,6.2-2.2,5.7-5.8c-0.5-3.9-3.9-4.3-7.4-4.5c-2-0.1-5.7,2.6-5.8-1.7c-0.1-3.5,3.6-2.4,5.8-3c0.7-0.2,1.5-0.2,2.2-0.5
	c4.1-1.2,10.2-0.9,9.8-6.9C558.6,486.6,551.9,490,548.8,488.5z"/>
<path class="st0" d="M438.6,488.5c-14.2,0.5-19.1,5-19.9,18.2c-0.2,3.9-1.9,5.8-5.2,7.2c-2,0.8-3.3,2.4-2.8,4.7
	c0.4,2.1,2.4,2.6,4.1,2.5c3.5-0.1,4.7,1.7,5.4,4.8c1.4,6.6,3.8,12.9,11.4,13.9c8.4,1.1,15.5-2.6,21.5-8.3c1.5-1.4,2-3.6,1.3-5.5
	c-0.8-2.3-2.8-2.3-4.9-2.5c-4-0.3-7.9,1-11.8,1.4c-2,0.2-5,2.3-5.9-1.9c-0.8-3.8,0.8-5.4,4.3-6.2c2.4-0.6,4.7-1.4,6.9-2.6
	c1.6-0.8,2.6-2.6,2.3-4.4c-0.2-2-1.8-3.7-3.8-4c-1.7-0.4-3.5-0.1-5.2-0.2c-1.5-0.1-3.8,1.3-4.1-1.5c-0.3-2.3,1.5-2.8,3.3-3.1
	c1.2-0.1,2.5-0.3,3.7-0.5c4.5-1.2,11.5-0.8,10.6-7.7C449,486.2,442,490.1,438.6,488.5z"/>
<path class="st0" d="M327.4,518.7c-0.2,5.3,2.2,10.4,6.4,13.7c8.2,6.8,26.2,4.4,32.4-4.4c2.8-3.9,4.4-8.5,2.3-13.4
	c-1.7-4-5.2-5-9.3-4.6c-1.5,0.1-3.1,0.2-4-1.4c-1.5-2.5,1.3-2.7,2.2-3.8c2.3-2.6,3.6-5.4,2.3-8.8c-0.9-2.2-2.8-2.5-4.9-2.6
	C343.5,492.9,327.6,507.5,327.4,518.7z"/>
<path class="st0" d="M836.2,521.9c-5.4-0.2-10.7,3-12.8-3.1c-2.2-6.5,3.6-7.8,7.9-9.4c3-1.2,6.2-2,8.5-4.4s4.2-5,2.5-8.6
	c-1.9-4-5.5-3.2-8.4-2.5c-6.8,1.9-12.8,5.6-17.6,10.8c-5,5.3-8,11.4-5.8,19c2.3,8,8.2,11.4,15.8,12.9c10,2,23.9-6.5,25.5-15.7
	c0.9-4.8-0.8-8.8-5.3-10.3s-9.9-2.5-13.8,2.1C829.6,516.2,833.8,518,836.2,521.9z"/>
<path class="st0" d="M28.6,487.7c-8.8,0.9-17,3.6-23.8,9.3c-7.6,6.4-5.9,14.1,3.5,17.3c3.1,1,6.2,1.7,9.2,2.9
	c3.3,1.3,9.3,1.2,8.8,5.1c-0.6,5-6.4,2.5-10,3.2c-0.2,0-0.5,0-0.8,0c-2.7,0.4-6.1,0.2-6.3,3.8c-0.2,3.2,1.9,5.3,5.2,6.4
	c6.4,2.2,16.5-1.3,21.3-7.5c4.5-5.7,3.8-10.9-2-15.5c-4.4-3.5-9.9-4.3-15.1-5.8c-1.3-0.4-3.4,0.2-3.4-1.9c0-1.6,1.6-2.4,2.9-3.1
	c4.8-2.6,9.7-1.3,14.6-0.5c3.7,0.6,7.3,0.9,8.5-3.6c1.1-4-1.6-6.6-4.7-8.4C34.1,488.2,31.4,487.5,28.6,487.7z"/>
<path class="st0" d="M138.4,535.6c12.1,0,23.3-9.7,24.7-21.5c1.1-8.7-2.4-14.2-10.4-17.5c-10.9-4.6-19.4,1.2-28.7,12.6
	c-6.5,7.9,0.1,14.6,2.1,21.3C127.7,535.5,133.6,535.7,138.4,535.6z"/>
<path class="st0" d="M485.3,514.9c-2.2-5.4-3.8-9.7-5.7-14c-1.2-2.8-2.8-5.7-6.5-4.7c-4.2,1.2-4,4.9-3,8c3.1,9.7,6.5,19.2,10,28.8
	c1.1,3,2.5,6.6,6.5,6.3c3.4-0.3,5.7-2.9,6.9-6.1c4.8-13,7-26.9,14.4-38.9c1.7-2.8,0.3-6.1-2.6-7.7c-3.2-1.7-6.4-1.2-8.4,2.2
	c-1.8,2.7-3.3,5.5-4.6,8.5C489.8,502.7,487.9,508.3,485.3,514.9z"/>
<path class="st0" d="M642.4,532.9c0,1.8,0.4,4.3,3.2,5.3c2.4,1,5.2,0,6.4-2.3c7.5-12.3,15-24.5,22.4-36.9c1.5-2.5,2.9-5.6-0.1-8.1
	c-3.3-2.8-6.2-0.4-8.7,1.5c-4.4,3.3-8.4,7-12.7,10.3s-7.8,2.4-9.7-3c-0.6-1.6-1.1-3.3-1.8-4.9s-2-2.9-4.1-2.5s-2.7,1.8-3.2,3.7
	c-1.9,7.8,3.3,18,11,20.1c4.1,1.1,3.2,2.7,1.8,5.1C644.9,524.5,642.9,528,642.4,532.9z"/>
<path class="st0" d="M972.7,485.9c-7.7,0.6-15.4,2.2-22.7,4.8c-4.3,1.5-11.7,1.1-10.5,7.9c1.1,6.3,7.8,3.9,12,3.7
	c5.7-0.2,6,2,4.9,6.6c-1.4,5.7-3.1,11.6-2.2,17.6c0.5,3.2,1.1,6.8,5.1,7.2c3.6,0.4,5.3-2.5,6.4-5.3c2.9-7.1,4.5-14.7,4.8-22.4
	c0-4.3,1.2-6.9,5.5-8.3c3.5-1.2,7.3-3.3,6.5-7.9C981.4,484.5,976.7,486.6,972.7,485.9z"/>
<path class="st0" d="M252.3,510.2c0.1-4.2-0.7-8.4-2.3-12.3c-1.2-2.9-2.9-5.8-6.3-5.4s-4.1,3.7-4.5,6.8c-1.4,10.5,0.4,21.2-2.5,31.7
	c-1,3.4,0.7,7.3,4.7,8.1c3.8,0.7,5.5-2.7,6.8-5.7C251.4,526,251.8,518.1,252.3,510.2z"/>
<path class="st0" d="M795.6,512c0.1-4.5,0.1-8.9-1.5-13.2c-1.2-3.1-2.8-6.4-6.4-6.4c-4.2,0-4.7,4.2-5,7.2c-1.1,10.8,0,21.7-2.1,32.5
	c-0.6,3.2,0.8,6.1,4.2,7c3.5,0.8,5.3-1.8,6.6-4.7C794.5,527.3,795.5,519.8,795.6,512z"/>
<path class="st1" d="M637.3,98.1c4.5,5,9.3,5.8,15.9,3.4c23.6-8.4,49.5,3.9,58,27.4c5.5,15.4,2.3,32.6-8.4,45
	c-3.2,3.7-3.8,6.1-1.7,10.9c6.3,14.1,2.5,30-8.7,40.3c-10.9,10-26.2,12.1-40.1,5.5c-2-0.9-3.8-2.5-6.2-2.1c-3.7-6.6-8.8-10-16.8-8.4
	c-3.3,0.6-7.3,0.8-10.2-1.2c-7.9-5.4-15.5-2.4-23.5-0.5c-5,1.1-6.8,3.5-7.6,8.4c-5,28.9-26.5,43.2-54.8,36.5
	c-3.7-0.9-4.9-0.4-6.4,3.2c-15.1,34.7-41.2,56-78.8,62.3c-23.8,4-64.9-10.5-72.9-41.9c-6.5-25.6-27.3-33.5-50.2-38.1
	c-1.2-1.2-2.5-2.3-3.9-3.3c-33.9-18.8-47.9-50.3-52.9-86.3c-8-57.6,19.5-103.6,75-127.7c20.6-9,42.1-15,64.7-16.3
	c2.9-0.2,5.8-1.3,8.7-2c0.8,1.8,2.4,1.4,3.8,1.5c32.3,1.9,60.4,14,83.8,36.3c3,2.8,5.5,3.2,9.3,2.3c5.8-1.5,11.7-1.8,17.1,1.5
	c-3.1,1.8-6.4,3.1-9.8,4c-5.4,1.5-6.5,3.5-3,8.7c9.6,13.8,13.9,29.5,15.3,46.2c1.2,14.8,1,29.6,1.2,46.1c12.8-9.7,24.5-8.3,35.8,0.3
	l1.5,1.5l1.5,1.5c1.6,2,2,5.2,5.5,5.3c0.5,0,1.4-1.4,1.3-1.5c-1.6-2.3-4.1-3.6-6.8-3.7c0-0.8-0.5-1.4-1.3-1.5c-0.1,0-0.1,0-0.2,0
	c0-0.8-0.6-1.5-1.4-1.5c-0.1,0-0.1,0-0.2,0c0.2-1.9-1.2-3.1-2.1-4.5c-10.6-17.3-1.1-41.7,18.7-44.2c10.5-1.3,19.5-3.3,28-9.9
	C620.8,96.4,629.5,98.8,637.3,98.1z M500.7,105.3c-1.9-0.5-4,0.3-5.1,1.9c2-0.1,3.9-0.1,5.5-1.4c8.1,2.1,15.1,5.5,15.7,15.4
	c0.5,8.3-3,15.3-7.1,22.3c7.5-3.8,9.7-10.9,11-18.2C522.7,113.6,512.4,101.6,500.7,105.3L500.7,105.3z M514.4,100.2l0.5,0.3
	L514.4,100.2c-0.6-10.1-6.2-18-11.3-26.2c-2.2-3.5-4-1.4-5.9,0.4c-6.1,5.8-11.7,12.2-16.7,19.1c-3.6,5.2-7.2,10.4-10.8,15.6
	c-0.3-16.7,6.7-30.1,18.1-40.8c6-5.6,4.2-8-1-12C452.9,29.9,415.2,24,374.3,36.2C344.1,43,317.7,56.7,299.1,82
	c-26.9,36.8-23.8,97.4,5.9,132.1c2.5,2.9,4.4,6.8,9,7.1c8.2,9.8,19.8,14,31.4,17.6c21.3,6.6,35.9,19.6,43.1,40.9
	c7.8,23.3,26.1,32.5,48.8,33.8c28.6,1.6,63.3-21.8,73.7-48.6c0.8-2.3,1.5-4.7,1.9-7.2c0.9-4.3-1.1-4.8-4.5-3.3
	c-5.2,2.3-6.5,7.1-8,11.9c-1.2,3.9-3.8,6.7-8.3,5.6c-4.4-1-6.9-3.9-6.4-8.7c2-19.8,22.9-32.4,38.4-21.2c4.9,3.5,10.5,5.9,16.3,7.1
	c16.2,3.5,30.9-7.8,31.4-24.2c-5.4,0.8-4.7,5.9-6.4,9.1c-5,9.1-12.5,9.9-18.8,1.7c-9.6-12.4-11.5-41.6-3.6-55.1
	c4.4-7.5,9.4-8.5,16.4-3.1c1.1,0.9,2,2.5,3.7,0.7c-4.3-9.9-10.4-12-19.2-6.4c-5.5,3.6-9.6,8.6-13.8,13.6
	c-8.3,9.8-17.3,18.7-30.2,22.3c-5.3,1.5-10.3,1-12.1-5.2s2.5-8.1,7.4-9.7c19.1-6.2,28.7-26.5,21.7-46c-4.7,4.3-9.7,8-15.8,9.8
	c-15.1,4.4-27.3-4.5-27.4-20.1C473.4,114.3,490.1,99.5,514.4,100.2z M560.1,203.1c0.3,11.9-2.2,12.8,10.2,9.4
	c7.7-2.1,15.3-4.5,23.1-6.1c5.7-1.2,8.4-2.9,5-9.1c-1.2-2.2-1.1-5.4-1.1-8.1c0-3.5,2.2-5.6,5.5-5.9c2.9-0.4,5.5,1.5,6.1,4.4
	c0.5,1.9,0.6,3.9,1.1,5.9c2.2,8.8,10.1,14.9,18.4,14.4c3.5-0.2,5.5-1.1,5.3-5.3c-0.2-4.6,1.8-8.7,4.1-12.6c2.1-3.6,4.6-6.2,9-4
	s3.7,5.9,1.7,9.5c-2.2,4-3.7,8.3-1.9,12.9c4.5,11.4,19,17,30.8,12c12-5.2,17.8-18.9,12.8-30.4c-1.5-3.4-3.5-5-7.4-4.5
	c-5,0.7-9.9-0.6-14.5-2.6c-4.1-1.8-8.2-4.1-6-9.4c2-4.8,5.9-3.8,10.1-2.2c10.3,4,15.3,2.3,22.1-6.3c6.6-8.1,9-18.7,6.6-28.8
	c-3.3-15.1-17.2-25.7-33.5-25.5c-16.1,0.2-24.2,7.5-27.6,24.9c-0.8,3.8-2.6,6.7-6.9,6.3c-4-0.4-5.3-3.4-5.3-7
	c-0.1-6.8,1.6-13.4,5.1-19.2c2.3-3.8,1-4.8-2.7-5c-8.1-0.4-14.7,2.3-19,9.4c-2.8,4.6-6,6.6-11.8,4.2c-8.2-3.4-14.5-1.7-19.6,4.2
	c-4.7,5.5-5.5,13.2-2,19.5c3.3,6.1,10.1,9.1,18.6,7.9c3.7-0.5,7.1-0.7,8.9,3.3c2,4.5-1.1,6.9-4.3,9c-11.2,7.4-22.2,15.2-33.7,22.2
	C561.5,194,558.6,197.8,560.1,203.1z"/>
<path class="st2" d="M324.6,248.6c22.9,4.6,43.7,12.5,50.2,38.1c8,31.4,49.1,45.9,72.9,41.9c37.6-6.3,63.7-27.6,78.8-62.3
	c1.5-3.5,2.8-4,6.4-3.2c28.3,6.7,49.8-7.6,54.8-36.5c0.9-4.9,2.7-7.2,7.6-8.4c8-1.9,15.7-4.9,23.5,0.5c3,2,6.9,1.8,10.2,1.2
	c8-1.6,13.1,1.9,16.8,8.4c-2.5,10.4-6.5,20.5-11.8,29.8c-20.8,37.5-51.5,64.1-91.7,78.8c-21.2,7.7-43.2,12.5-66.1,11.4
	c-40.1-2-75.9-14.9-107-40.8c-17.9-14.9-31.5-32.9-43.1-52.8C325.3,253,324.1,251.1,324.6,248.6z"/>
<path class="st2" d="M569.7,160c-11.2-8.6-22.9-10.1-35.8-0.3c-0.2-16.5,0-31.3-1.2-46.1c-1.4-16.7-5.7-32.4-15.3-46.2
	c-3.6-5.2-2.4-7.2,3-8.7c3.4-0.9,6.7-2.2,9.8-4c-5.4-3.4-11.3-3-17.1-1.5c-3.8,1-6.4,0.5-9.3-2.3c-23.5-22.3-51.5-34.3-83.9-36.2
	c-1.4-0.1-3.1,0.3-3.8-1.5c18.7-8,38.6-11.2,58.6-12.8c25.8-2,50.4,5.2,74.2,14.2c23,8.6,43.6,22.5,60,40.8
	c11.4,12.8,23,25.8,28.3,42.7c-7.8,0.8-16.4-1.7-23.1,3.4c-8.5,6.5-17.5,8.5-28,9.9c-19.7,2.5-29.3,26.9-18.7,44.2
	c0.9,1.5,2.3,2.6,2.1,4.5L569.7,160z"/>
<path class="st1" d="M90.8,517.2c-10.4,8.1-11.9,8.2-19.9,0.6c-2.8,3.1-2.3,7.3-3.6,10.8s-2.1,7.1-6.8,6.2c-4.3-0.8-5.4-4.1-4.9-7.9
	c1.5-11.8,3.1-23.6,6.3-35.1c0.9-3.2,2.4-6,6.5-6.1c3.6-0.1,5.3,2.1,6.5,5.1c2.1,4.9,4.3,9.8,6.7,15.3c4.6-4.1,6.5-9.4,9.4-13.8
	c2.6-4,5.6-6.2,10.5-4.9c5.1,1.4,4.9,5.5,4.8,9.6c-0.3,10.7-1.4,21.3,0.1,32c0.6,4.2-0.4,8.2-5.3,9.2c-5.4,1.1-7.4-2.7-9-6.9
	S91.6,522.5,90.8,517.2z"/>
<path class="st1" d="M580.2,507.1c-0.1-20.1,9.2-26.9,27-21.9c10.3,2.9,14.7,12.1,9.4,22.2c-3.2,6.1-2,9.6,3.3,12.8
	c3,1.8,5.3,4.3,3,7.9s-5.8,3.4-9.3,2.1c-2.8-1.2-5.2-3-7-5.4c-1.3-1.5-2.4-3.1-4.9-1.8c-2.2,1.1-3.7,2.4-3.1,5.1
	c0.8,4.2,2,9-3.8,10.3c-6.4,1.5-8.5-3.5-10.3-8.3C581.8,522.7,580.4,514.9,580.2,507.1z M602.2,500.1c-0.8-1.8-0.2-5.5-3.3-5.4
	c-3.9,0.1-3.9,3.9-3.6,6.7c0.2,2.6-1.6,7.3,2,7.3C600.7,508.7,601.2,503.7,602.2,500.1L602.2,500.1z"/>
<path class="st1" d="M192,503c4.8-4.9,9.2-9.5,13.7-14c2.1-2.2,4.8-3.6,7.8-4.2c3.3-0.6,6.1,0.5,7.5,3.6s1,6-1.8,8.1
	c-3.3,2.6-6.8,5.1-10.4,7.3c-5.2,3.1-4.5,6.5-0.8,10c2.7,2.6,5.7,4.8,8.4,7.3c3.9,3.6,7.3,7.8,2.7,12.7c-4.5,4.8-9.1,2.5-12.7-1.7
	c-3.1-3.6-5.8-7.5-8.7-11.2c-1-1.3-1.5-3.6-3.6-3.2s-2.8,2.7-3.2,4.6c-0.5,2.4-0.6,4.9-0.9,7.4c-0.2,2.3-0.4,4.7-3,5.5
	c-3,0.9-5.6-0.4-7.2-2.7c-1.3-1.8-2.1-3.9-2.5-6.1c-1.7-11.5,0.5-22.8,2.5-34.1c0.4-3,3.1-5.1,6.1-4.8c0.2,0,0.4,0.1,0.5,0.1
	c3.6,0.6,4.6,3.3,4.8,6.5C191.6,496.7,190.2,499.4,192,503z"/>
<path class="st1" d="M729,514.2c-1,6.5-1.7,11.1-2.5,15.7c-0.5,2.6-1.9,4.9-4.8,5c-3.4,0.1-4.9-2.6-5.1-5.4
	c-0.6-10.4,1.2-20.3,6.5-29.4c2.2-3.6,5.1-4.4,8.5-1.1c5.1,4.8,10.3,9.3,15.8,14.3c1.4-0.9,0.2-3.7,0.7-5.9c1-4.4,1.3-8.9,2.5-13.2
	s1.9-10.6,8.4-9.2c6.3,1.4,6.8,7.1,5.9,12.7c-1.8,11-3.8,22-6.9,32.8c-1,3.5-2.4,6.7-6.3,7.7c-4.3,1.1-7.2-1.5-9.5-4.5
	C738.2,527.8,734.3,521.8,729,514.2z"/>
<path class="st1" d="M278.5,514.1c-0.9,6.4-1.3,10.6-2.1,14.7c-0.6,2.9-1.6,6.3-5.4,6.1c-3.5-0.2-4.7-3.3-4.8-6.5
	c-0.4-9,1.4-18,5.3-26.1c3.2-6.5,6.1-6.9,11.3-1.9c4.6,4.5,8.8,9.3,13.7,14.5c1.5-7.7,2.5-14.7,4.2-21.5c1-4.2,2.1-9.8,8.3-8.4
	c5.6,1.3,6.4,6.3,5.7,11.4c-1.5,11.3-3.7,22.6-6.8,33.6c-1,3.6-2.3,7.3-6.7,8.2s-7.1-2-9.3-4.9C287.6,527.7,283.7,521.7,278.5,514.1
	z"/>
<path class="st1" d="M921,496.5c-0.8,4.4-0.1,10.2-0.1,15.7c0,7.1-1.5,15.1-3.4,22.3c-1.3,4.9-5.9,3.8-8.9,0.7c-2.7-3-4.1-7-3.8-11
	c0.3-5-2.1-5.9-6.3-5.3c-6,0.9-13.2,0.2-11.8,10c0.4,2.7-0.9,4.8-4,5.2s-5.4-0.5-6.4-3.7s-1.9-5.7-5.4-7.4c-3.8-1.8-2.5-6,0.1-7.2
	c5.7-2.7,6.3-7.8,7.6-12.7c0.2-1,0.5-1.9,0.9-2.8c1.8-3.6,2.8-9.8,7.7-8.4s1.9,6.8,1.2,10.4c-1.1,5.3-0.1,6.3,5.9,5.7
	c9.1-0.9,13.8-4.5,15.2-13.5c0.5-3.5,2.2-7.6,7.1-7.2S921.2,491.5,921,496.5z"/>
<path class="st1" d="M548.8,488.5c3.1,1.6,9.8-1.8,10.2,4.8c0.4,6-5.7,5.7-9.8,6.9c-0.7,0.2-1.5,0.3-2.2,0.5c-2.2,0.6-5.9-0.5-5.8,3
	c0.1,4.3,3.8,1.6,5.8,1.7c3.5,0.2,6.9,0.6,7.4,4.5c0.5,3.7-3,4.7-5.7,5.8c-1.9,0.7-3.8,1.2-5.7,1.7c-3,0.8-2.7,2.9-2.4,5.3
	c0.5,3.2,2.2,2.9,4.7,2.5c4.4-0.8,8.7-2.2,13.2-1.8c2.1,0.2,4.1,0.3,5,2.5c0.7,1.9,0.2,4.1-1.4,5.5c-6,5.8-13,9.5-21.4,8.4
	c-7.7-1-10.1-7.2-11.5-13.8c-0.6-2.8-1.6-5.1-5.3-4.8c-2.1,0.2-4.1-0.9-4.3-3.2c-0.1-2.1,1.3-4,3.4-4.5c3-0.7,5-3.6,4.7-6.7
	C527.2,492.2,536.3,488.4,548.8,488.5z"/>
<path class="st1" d="M438.6,488.5c3.3,1.7,10.4-2.2,11.3,4.3c1,6.8-6,6.4-10.6,7.7c-1.2,0.3-2.5,0.4-3.7,0.5
	c-1.8,0.2-3.6,0.8-3.3,3.1c0.4,2.8,2.6,1.4,4.1,1.5c1.7,0.1,3.5-0.1,5.2,0.2c2,0.3,3.6,2,3.8,4c0.3,1.8-0.6,3.6-2.3,4.4
	c-2.2,1.2-4.5,2-6.9,2.6c-3.6,0.8-5.1,2.4-4.3,6.2c0.9,4.3,3.8,2.1,5.9,1.9c3.9-0.4,7.7-1.8,11.8-1.4c2.1,0.2,4.1,0.2,4.9,2.5
	c0.7,1.9,0.2,4.1-1.3,5.5c-6,5.8-13,9.4-21.5,8.3c-7.7-1-10.1-7.3-11.4-13.9c-0.6-3.1-1.8-4.9-5.4-4.8c-1.7,0.1-3.7-0.5-4.1-2.5
	c-0.5-2.3,0.8-3.9,2.8-4.7c3.3-1.3,5-3.3,5.2-7.2C419.5,493.5,424.5,488.9,438.6,488.5z"/>
<path class="st1" d="M327.4,518.7c0.2-11.2,16.1-25.8,27.5-25.2c2.1,0.1,4.1,0.4,4.9,2.6c1.3,3.4,0,6.2-2.3,8.8
	c-0.9,1.1-3.7,1.3-2.2,3.8c0.9,1.5,2.5,1.5,4,1.4c4.1-0.4,7.6,0.6,9.3,4.6c2,4.8,0.5,9.4-2.3,13.4c-6.2,8.8-24.2,11.2-32.4,4.4
	C329.7,529.1,327.3,524,327.4,518.7z M353.6,520.7c-3.4-2.5-5.2-5-3.1-8.5c0.6-1,0.6-1.8-0.7-2.1c-2.7-0.6-4.8,0.7-6.8,2.2
	c-2,1.5-2.4,3.6-2.1,6c0.4,2.6,2.1,3.8,4.6,4C348.2,522.6,351.1,522,353.6,520.7L353.6,520.7z"/>
<path class="st1" d="M836.2,521.9c-2.5-3.8-6.6-5.6-3.4-9.4c3.9-4.6,9.2-3.6,13.8-2.1s6.1,5.5,5.3,10.3
	c-1.7,9.2-15.5,17.7-25.5,15.7c-7.6-1.5-13.5-4.9-15.8-12.9c-2.2-7.6,0.8-13.7,5.8-19c4.7-5.2,10.8-8.9,17.6-10.8
	c2.9-0.8,6.6-1.6,8.4,2.5c1.7,3.6-0.3,6.3-2.5,8.6s-5.5,3.2-8.5,4.4c-4.3,1.6-10.1,3-7.9,9.4C825.6,524.9,830.8,521.6,836.2,521.9z"
	/>
<path class="st1" d="M28.6,487.7c2.8-0.2,5.5,0.5,7.9,1.9c3.1,1.8,5.8,4.3,4.7,8.4c-1.2,4.4-4.8,4.1-8.5,3.6
	c-4.9-0.7-9.8-2.1-14.6,0.5c-1.3,0.7-2.9,1.5-2.9,3.1c0,2.1,2,1.5,3.4,1.9c5.2,1.5,10.7,2.3,15.1,5.8c5.8,4.6,6.5,9.8,2,15.5
	c-4.8,6.2-14.9,9.6-21.3,7.5c-3.2-1.1-5.3-3.2-5.2-6.4c0.2-3.6,3.6-3.4,6.3-3.8c0.2,0,0.5,0,0.8,0c3.6-0.6,9.4,1.8,10-3.2
	c0.4-3.9-5.6-3.8-8.8-5.1c-3-1.2-6.2-1.9-9.2-2.9c-9.4-3.2-11.1-10.9-3.5-17.3C11.6,491.3,19.8,488.6,28.6,487.7z"/>
<path class="st1" d="M138.4,535.6c-4.9,0.1-10.8-0.1-12.2-5c-2-6.7-8.7-13.4-2.1-21.3c9.4-11.4,17.8-17.2,28.7-12.6
	c7.9,3.3,11.4,8.8,10.4,17.5C161.7,525.9,150.5,535.6,138.4,535.6z M141.4,522.3c5.1-0.7,7.9-3.4,8.4-8.2c0.4-3.9-1.7-6.1-5.4-6.7
	c-3.9-0.6-11.8,5.7-11.2,9.2C133.9,521,138.6,520.5,141.4,522.3L141.4,522.3z"/>
<path class="st1" d="M485.3,514.9c2.5-6.6,4.5-12.2,6.8-17.7c1.3-2.9,2.9-5.8,4.6-8.5c2-3.4,5.2-3.9,8.4-2.2c3,1.6,4.4,4.9,2.6,7.7
	c-7.4,12.1-9.5,26-14.4,38.9c-1.2,3.3-3.5,5.8-6.9,6.1c-3.9,0.3-5.4-3.3-6.5-6.3c-3.5-9.5-6.9-19.1-10-28.8c-1-3.1-1.2-6.8,3-8
	c3.7-1,5.3,1.9,6.5,4.7C481.5,505.2,483.2,509.6,485.3,514.9z"/>
<path class="st1" d="M642.4,532.9c0.5-4.9,2.5-8.4,4.6-11.8c1.5-2.4,2.3-4-1.8-5.1c-7.7-2.1-12.9-12.3-11-20.1
	c0.5-1.8,1.2-3.3,3.2-3.7s3.3,0.9,4.1,2.5s1.2,3.2,1.8,4.9c1.9,5.4,5.3,6.3,9.7,3s8.4-7,12.7-10.3c2.5-1.9,5.4-4.3,8.7-1.5
	c3,2.5,1.6,5.6,0.1,8.1c-7.3,12.4-14.9,24.6-22.4,36.9c-1.2,2.4-4,3.4-6.4,2.3C642.8,537.1,642.4,534.6,642.4,532.9z"/>
<path class="st1" d="M972.7,485.9c3.9,0.6,8.7-1.4,9.7,4c0.8,4.6-2.9,6.7-6.5,7.9c-4.3,1.4-5.5,4-5.5,8.3
	c-0.2,7.7-1.8,15.3-4.8,22.4c-1.1,2.8-2.8,5.7-6.4,5.3c-4.1-0.4-4.7-4-5.1-7.2c-0.8-6,0.8-11.8,2.2-17.6c1.2-4.6,0.8-6.8-4.9-6.6
	c-4.3,0.1-10.9,2.5-12-3.7c-1.2-6.9,6.3-6.5,10.5-7.9C957.4,488.1,965,486.5,972.7,485.9z"/>
<path class="st1" d="M252.3,510.2c-0.5,7.9-1,15.8-4.1,23.2c-1.3,3-2.9,6.4-6.8,5.7c-4-0.8-5.7-4.7-4.7-8.1
	c2.9-10.5,1.1-21.2,2.5-31.7c0.4-3.1,1.1-6.4,4.5-6.8s5.1,2.5,6.3,5.4C251.6,501.8,252.4,506,252.3,510.2z"/>
<path class="st1" d="M795.6,512c-0.1,7.7-1,15.3-4.2,22.4c-1.3,2.9-3.1,5.5-6.6,4.7c-3.4-0.8-4.8-3.8-4.2-7
	c2.2-10.8,1-21.7,2.1-32.5c0.3-3,0.8-7.2,5-7.2c3.6,0,5.2,3.3,6.4,6.4C795.7,503.1,795.7,507.6,795.6,512z"/>
<path class="st2" d="M374.3,36.2C415.2,24,452.9,29.9,487,56.3c5.2,4,6.9,6.4,1,12c-11.4,10.7-18.4,24.1-18.1,40.8
	c3.6-5.2,7.2-10.4,10.8-15.6c4.9-6.9,10.5-13.2,16.6-19c1.8-1.8,3.7-3.9,5.9-0.4c5.1,8.2,10.7,16.2,11.2,26.3l0.1-0.1
	c-24.3-0.7-41.1,14.2-40.8,36.2c0.1,15.6,12.3,24.5,27.4,20.1c6.1-1.8,11.1-5.4,15.8-9.8c7,19.6-2.6,39.8-21.7,46
	c-5,1.6-9.3,3.4-7.4,9.7s6.8,6.6,12.1,5.2c12.9-3.6,21.9-12.5,30.2-22.3c4.2-4.9,8.2-10,13.8-13.6c8.8-5.6,14.9-3.5,19.2,6.4
	c-1.6,1.7-2.5,0.1-3.7-0.7c-7-5.4-12-4.4-16.4,3.1c-7.8,13.4-5.9,42.6,3.6,55.1c6.3,8.2,13.7,7.4,18.8-1.7c1.7-3.1,1-8.3,6.4-9.1
	c-0.5,16.4-15.2,27.7-31.4,24.2c-5.9-1.2-11.5-3.6-16.4-7c-15.5-11.2-36.4,1.4-38.4,21.2c-0.5,4.8,2,7.7,6.4,8.7
	c4.5,1.1,7.1-1.7,8.3-5.6c1.5-4.8,2.8-9.6,8-11.9c3.4-1.5,5.4-1,4.5,3.3c-0.4,2.4-1.1,4.8-1.9,7.2c-10.4,26.8-45.1,50.3-73.7,48.6
	c-22.7-1.3-41-10.5-48.8-33.8c-7.2-21.3-21.8-34.3-43.1-40.9c-11.5-3.6-23.1-7.8-31.4-17.6c-6.2-20.1-8.3-41.3-6.2-62.3
	c3.1-31.3,12.9-59.7,31.4-85.4C349.4,59.5,362.2,48.3,374.3,36.2z M402.7,109.2c-20.4,2.9-32.9,14.3-37.3,33.9
	c-6,26.6,14.9,59.6,41.4,66.3c32.9,8.4,58.2-13.3,54.1-46.9c-2.1-17.5-10.7-32.5-21.9-45.9c-26.1-31.3-67.1-31.5-94-0.8
	c-1.2,1.4-3.7,2.7-2.2,4.9s3.5,0.3,5.2-0.6c6.2-3.1,12.3-6.6,18.7-9.3C378.4,105.9,390.5,104.7,402.7,109.2L402.7,109.2z
	 M446.7,281.7c1-4.2-1.6-5.6-3.1-7.3c-5-5.5-10.4-10.8-15.4-16.3c-3.8-4.2-7.7-8.4-9.1-14.3c-2.9-12-11.4-18.3-23.1-14.5
	c-10.7,3.4-18.2,0.5-25.7-6.1c-4.1-3.6-8.5-7-12.9-10.2c-3.6-2.6-7.1-5.5-12.1-6.1c4.1,6.1,8.5,12,13.2,17.6
	c10.1,12,20.1,24.1,38.8,18.1c3-1,6.8-0.8,8.4,3.9C412.2,266.3,430.1,272.8,446.7,281.7L446.7,281.7z M467.9,193.8
	c0.5,2.5-1,5.2,1.7,6.3c2.1,0.8,3.7-1.1,5-2.4c5.3-5.4,11.5-8.3,19.3-7.8c3.2,0.2,5.8-0.7,6.1-4.8c0.4-6-4.9-16.9-10.2-19.7
	c-4.8-2.6-9-1.7-12.6,2.6C470.9,175.6,469.3,184.8,467.9,193.8L467.9,193.8z"/>
<path class="st0" d="M560.1,203.1c-1.4-5.3,1.5-9.1,7.1-12.5c11.5-7,22.5-14.8,33.7-22.2c3.3-2.2,6.3-4.5,4.3-9
	c-1.8-4-5.2-3.9-8.9-3.3c-8.5,1.2-15.2-1.8-18.6-7.9c-3.5-6.3-2.7-14.1,2-19.5c5.2-5.9,11.4-7.6,19.6-4.2c5.7,2.4,8.9,0.4,11.8-4.2
	c4.3-7.1,10.9-9.8,19-9.4c3.7,0.2,5,1.2,2.7,5c-3.5,5.8-5.2,12.5-5.1,19.2c0,3.6,1.3,6.6,5.3,7c4.3,0.4,6.2-2.5,6.9-6.3
	c3.4-17.5,11.5-24.8,27.6-24.9c16.3-0.2,30.2,10.4,33.5,25.5c2.4,10.1,0,20.8-6.5,28.8c-6.7,8.6-11.8,10.3-22.1,6.3
	c-4.2-1.6-8.1-2.7-10.1,2.2c-2.2,5.3,1.9,7.6,6,9.4c4.6,2,9.5,3.3,14.5,2.6c4-0.5,6,1.1,7.4,4.5c5,11.5-0.7,25.2-12.8,30.4
	c-11.8,5-26.2-0.5-30.8-12c-1.8-4.6-0.3-8.8,1.9-12.9c2-3.6,2.8-7.2-1.7-9.5s-6.9,0.4-9,4c-2.3,3.9-4.3,8-4.1,12.6
	c0.2,4.1-1.8,5.1-5.3,5.3c-8.3,0.4-16.3-5.7-18.4-14.4c-0.5-1.9-0.6-4-1.1-5.9c-0.6-2.8-3.3-4.7-6.1-4.4c-3.3,0.3-5.6,2.4-5.5,5.9
	c0,2.7-0.1,5.8,1.1,8.1c3.4,6.2,0.7,7.9-5,9.1c-7.8,1.6-15.4,4-23.1,6.1C557.9,215.9,560.3,215,560.1,203.1z"/>
<path class="st0" d="M374.3,36.2c-12.1,12.1-25,23.3-35.1,37.4c-18.4,25.7-28.2,54.1-31.4,85.4c-2.1,21,0,42.1,6.2,62.3
	c-4.6-0.3-6.5-4.2-9-7.1c-29.7-34.7-32.8-95.3-5.9-132.1C317.7,56.7,344.1,43,374.3,36.2z"/>
<path class="st0" d="M500.7,105.3c11.7-3.8,22,8.3,19.9,19.9c-1.3,7.3-3.5,14.3-11,18.2c4.1-7,7.6-14,7.1-22.3
	c-0.6-9.8-7.5-13.2-15.7-15.4v-0.3L500.7,105.3z"/>
<path class="st2" d="M572.7,163.1c2.7,0.1,5.3,1.4,6.8,3.7c0.1,0.1-0.9,1.5-1.3,1.5C574.8,168.3,574.3,165,572.7,163.1L572.7,163.1z
	"/>
<path class="st2" d="M500.7,105.3l0.4,0.1v0.3c-1.5,1.3-3.4,1.3-5.5,1.4C496.8,105.6,498.8,104.9,500.7,105.3z"/>
<path class="st2" d="M514.4,100.3l0.6,0.2L514.4,100.3L514.4,100.3z"/>
<path class="st2" d="M571.2,161.6c0.8,0,1.4,0.5,1.5,1.3c0,0.1,0,0.1,0,0.2l0.1-0.1L571.2,161.6L571.2,161.6z"/>
<path class="st2" d="M569.7,160.1c0.8,0,1.5,0.6,1.5,1.4c0,0.1,0,0.1,0,0.2l0.1-0.1L569.7,160.1L569.7,160.1z"/>
<path class="st0" d="M602.2,500.1c-1,3.6-1.5,8.6-5,8.6c-3.6,0-1.7-4.7-2-7.3c-0.3-2.8-0.3-6.6,3.6-6.7
	C602.1,494.5,601.4,498.2,602.2,500.1z"/>
<path class="st0" d="M353.6,520.6c-2.5,1.4-5.4,1.9-8.2,1.5c-2.5-0.2-4.2-1.4-4.6-4c-0.3-2.3,0-4.5,2.1-6s4.1-2.8,6.8-2.2
	c1.4,0.3,1.3,1,0.7,2.1C348.4,515.6,350.2,518.1,353.6,520.6z"/>
<path class="st0" d="M141.4,522.3c-2.8-1.8-7.5-1.3-8.2-5.8c-0.6-3.5,7.4-9.8,11.2-9.2c3.6,0.6,5.7,2.8,5.4,6.7
	C149.3,518.9,146.5,521.5,141.4,522.3z"/>
<path class="st1" d="M402.7,109.2c-12.2-4.5-24.3-3.3-35.9,1.7c-6.4,2.7-12.5,6.2-18.7,9.3c-1.7,0.8-3.7,2.8-5.2,0.6s1-3.5,2.2-4.9
	c26.9-30.7,67.8-30.4,94,0.8c11.1,13.3,19.7,28.3,21.8,45.8c4.1,33.6-21.2,55.3-54.1,46.9c-26.5-6.8-47.4-39.8-41.4-66.3
	C369.8,123.5,382.3,112.1,402.7,109.2z M430.4,198.4c14.8-0.1,25.6-20.3,22.4-39.6c-3.4-20.6-24.7-41.4-39.1-37.9
	C448.6,137.8,458.1,179.6,430.4,198.4L430.4,198.4z"/>
<path class="st1" d="M446.6,281.6c-16.6-8.9-34.4-15.4-41-35.3c-1.6-4.7-5.3-4.9-8.4-3.9c-18.7,6-28.7-6.1-38.8-18.1
	c-4.8-5.6-9.2-11.4-13.2-17.6c5,0.6,8.5,3.5,12.1,6.1c4.4,3.2,8.8,6.6,12.9,10.2c7.5,6.6,15,9.6,25.7,6.1
	c11.8-3.8,20.3,2.5,23.1,14.5c1.4,5.9,5.2,10.1,9.1,14.3c5,5.5,10.4,10.7,15.4,16.3C445.1,276,447.7,277.4,446.6,281.6z"/>
<path class="st1" d="M467.8,193.8c1.4-9,3.1-18.2,9.4-25.9c3.5-4.3,7.7-5.2,12.6-2.6c5.3,2.9,10.7,13.7,10.2,19.7
	c-0.3,4.1-2.9,5-6.1,4.8c-7.8-0.5-14,2.4-19.3,7.8c-1.4,1.4-2.9,3.3-5,2.4C466.8,199,468.3,196.2,467.8,193.8z"/>
<path class="st0" d="M430.4,198.4c27.7-18.8,18.1-60.6-16.7-77.6c14.4-3.4,35.7,17.3,39.1,37.9C456,178.1,445.3,198.4,430.4,198.4z"
	/>
<g class="st3">
	<path class="st1" d="M241.1,406.6c0,9.3-3,16.9-9,22.7c-6.4,6.1-15.3,9.2-26.5,9.2c-1.9,0-4.7-0.1-8.5-0.3
		c-3.8-0.2-6.6-0.3-8.5-0.3c-2,0-3,0.7-3,2.1c0,1.8,0.2,4.4,0.6,7.9c0.4,3.5,0.6,6.1,0.6,7.9c0,0.9-0.5,1.3-1.5,1.3
		c-2.9,0-7.2-0.1-12.9-0.2c-5.8-0.1-10.1-0.2-12.9-0.2c-1.4,0-2.1-0.6-2.1-1.7c0-4.3,0.1-10.7,0.2-19.3c0.2-8.6,0.2-15,0.2-19.3
		c0-12.1-0.6-24.8-1.9-38.2l-0.1-0.8c-0.1-0.7,0.6-1.2,2.1-1.3c3.7-0.4,11.8-0.6,24.3-0.6c7.4,0,14.5,0.1,21.3,0.2
		c11.2,0.3,20.2,3.1,27,8.6C237.6,390.1,241.1,397.5,241.1,406.6z M212.9,407.5c0-9-5.4-13.5-16.1-13.5c-7.5,0-11.5,0.3-11.9,1
		c-0.3,0.5-0.5,5-0.5,13.4c0,1.2,0.1,3,0.2,5.3c0.1,2.3,0.2,4.1,0.2,5.3c0,0.8,4.2,1.2,12.7,1.2
		C207.7,420.1,212.9,415.9,212.9,407.5z"/>
	<path class="st1" d="M315.7,457.7c-4.1,0-9.3-0.1-15.8-0.2c-8.5-0.2-13.8-0.3-15.8-0.3l-21.1-0.2c-2.1,0-5.2,0-9.1-0.2
		c-1.4-0.2-2.1-0.8-2.1-1.8c0-4.2,0.1-10.5,0.2-18.9c0.2-8.4,0.2-14.7,0.2-18.9c0-4.5-0.2-11.2-0.5-20.1c-0.3-8.9-0.5-15.6-0.5-20.1
		c0-0.8,0.7-1.3,2.1-1.3c1.4,0,3.5,0.1,6.3,0.2c2.8,0.1,4.9,0.2,6.3,0.2c1.6,0,3.9-0.1,6.9-0.2c3.1-0.1,5.4-0.2,6.9-0.2
		c0.7,0,1,0.4,1,1.1l-0.1,0.8c-0.6,7.2-1.2,18.1-1.9,32.7l-0.1,15.3c0,4.9,0,8.5,0.1,10.8c0,0.5,0.1,0.9,0.1,1.4
		c0,0.5,0.4,0.8,1.1,0.9c0,0,0.7,0,1.8,0c4.2,0,10.6-0.2,19.1-0.5c8.5-0.4,14.8-0.5,19.1-0.5c1.3,0,1.9,0.4,1.9,1.3
		c0,6.6-0.6,12.3-1.8,17.1c-0.2,1-0.7,1.6-1.5,1.8C318.4,457.7,317.4,457.7,315.7,457.7z"/>
	<path class="st1" d="M414.4,428.4c0,9.8-1.4,16.5-4.3,20.1c-5.3,6.6-18.5,9.8-39.5,9.8c-9.5,0-16.9-0.6-22-1.8
		c-8.2-1.9-13.5-5.6-16-11c-1.2-2.7-1.8-7.4-1.8-14.2c0-1.6,0.1-3.9,0.2-7.1s0.2-5.5,0.2-7c0-4.5-0.3-11.2-0.8-20.1
		c-0.5-8.9-0.8-15.6-0.8-20.1c0-0.9,0.5-1.4,1.5-1.4c2.9,0,7.2,0.1,13,0.3c5.8,0.2,10.2,0.3,13,0.3c1.2,0,1.8,0.4,1.8,1.3
		c0,5.1-0.2,12.7-0.6,22.9c-0.4,10.2-0.6,17.8-0.6,22.9c0,6.1,0.8,10.1,2.3,12.3c2.1,2.9,6.4,4.3,13,4.3c9.7,0,14.5-3.8,14.5-11.5
		c0-5.6-0.2-14-0.5-25.2c-0.3-11.2-0.5-19.6-0.5-25.2c0-1.2,0.6-1.8,1.8-1.8c2.8,0,7-0.1,12.6-0.3c5.6-0.2,9.8-0.3,12.6-0.3
		c1.4,0,2.1,0.5,2.1,1.4c0,4.4-0.2,11.1-0.7,20.1c-0.4,8.9-0.7,15.7-0.7,20.1c0,1.2,0,3.1,0.1,5.6
		C414.4,425.3,414.4,427.1,414.4,428.4z"/>
	<path class="st1" d="M521.4,454.9c0.1,1-0.6,1.6-2,1.6c-0.9,0-3.5-0.4-7.7-1.3c-4.3-0.8-6.9-1.4-7.9-1.7
		c-9.9,3.2-19.3,4.7-28.4,4.7c-14.6,0-26.5-4-35.9-11.9c-9.2-7.8-13.9-17.7-13.9-29.7c0-12.2,4.5-22.4,13.4-30.4
		c9.2-8.3,21.2-12.5,36-12.5c7.2,0,13.9,1.1,20.2,3.4c6.8,2.5,12.2,5.9,16.1,10.4c0.8,0.9,1.2,1.6,1.2,2c0,1.2-2.1,4-6.3,8.3
		c-4.2,4.3-6.9,6.4-8.2,6.4c-0.3,0-1.4-0.8-3.3-2.4c-2.3-1.9-4.7-3.4-7.1-4.4c-3.6-1.6-7.5-2.4-11.9-2.4c-7.1,0-12.7,2.2-16.8,6.5
		c-3.9,4-5.8,8.9-5.8,14.9c0,6.3,2,11.3,6,14.9c4.1,3.8,10,5.7,17.6,5.7c4.8,0,10.2-1,16.1-3c-0.1-1.3-0.6-4.5-1.3-9.7
		c-0.6-4-0.9-7.2-0.9-9.7c0-0.7,0.3-1.2,0.9-1.3c0.2-0.1,0.6-0.1,1.1-0.1c1.4,0,3.4,0.1,6.2,0.3s4.8,0.3,6.3,0.3
		c1.5,0,3.8-0.1,6.8-0.3c3-0.2,5.3-0.3,6.8-0.3c1.2,0,1.8,0.6,1.8,1.9c0,1.9-0.1,4.6-0.4,8.4c-0.3,3.7-0.4,6.5-0.4,8.4
		c0,5,0.4,12.4,1.3,22.3L521.4,454.9z"/>
	<path class="st1" d="M665.7,416.3c0,12-4.7,22.1-14.1,30.3c-9.6,8.3-21.7,12.4-36.3,12.4c-14.6,0-26.7-4.2-36.3-12.5
		c-9.4-8.1-14.1-18.2-14.1-30.1c0-12,4.7-22.1,14.1-30.3c9.6-8.4,21.7-12.6,36.3-12.6c14.5,0,26.5,4.2,36.2,12.6
		C661,394.3,665.7,404.4,665.7,416.3z M638.9,416.2c0-5.8-2.1-10.7-6.4-14.8c-4.5-4.2-10.2-6.4-17.2-6.4c-6.6,0-12.3,2.2-16.9,6.6
		c-4.5,4.2-6.7,9.1-6.7,14.6c0,5.9,2.1,10.8,6.3,14.8c4.4,4.1,10.2,6.2,17.3,6.2c6.6,0,12.3-2.2,17-6.5
		C636.7,426.5,638.9,421.7,638.9,416.2z"/>
	<path class="st1" d="M761,406.6c0,9.3-3,16.9-9,22.7c-6.4,6.1-15.3,9.2-26.5,9.2c-1.9,0-4.7-0.1-8.5-0.3c-3.8-0.2-6.6-0.3-8.5-0.3
		c-2,0-3,0.7-3,2.1c0,1.8,0.2,4.4,0.6,7.9c0.4,3.5,0.6,6.1,0.6,7.9c0,0.9-0.5,1.3-1.5,1.3c-2.9,0-7.2-0.1-12.9-0.2
		c-5.8-0.1-10.1-0.2-12.9-0.2c-1.4,0-2.1-0.6-2.1-1.7c0-4.3,0.1-10.7,0.2-19.3c0.2-8.6,0.2-15,0.2-19.3c0-12.1-0.6-24.8-1.9-38.2
		l-0.1-0.8c-0.1-0.7,0.6-1.2,2.1-1.3c3.7-0.4,11.8-0.6,24.3-0.6c7.4,0,14.5,0.1,21.3,0.2c11.2,0.3,20.2,3.1,27,8.6
		C757.5,390.1,761,397.5,761,406.6z M732.7,407.5c0-9-5.4-13.5-16.1-13.5c-7.5,0-11.5,0.3-11.9,1c-0.3,0.5-0.5,5-0.5,13.4
		c0,1.2,0.1,3,0.2,5.3c0.1,2.3,0.2,4.1,0.2,5.3c0,0.8,4.2,1.2,12.7,1.2C727.6,420.1,732.7,415.9,732.7,407.5z"/>
	<path class="st1" d="M839.5,393.3c0,0.8-0.5,1.2-1.6,1.2c-1.8,0-8.9-0.3-21.3-0.9c-0.3,9.8-0.4,16.6-0.4,20.4
		c0,4.6,0.2,11.4,0.7,20.5c0.4,9.1,0.7,16,0.7,20.5c0,0.7-0.2,1.2-0.6,1.4c-0.1,0.1-0.8,0.2-2,0.3c-2.8,0.3-7,0.5-12.4,0.5
		c-6.1,0-10.3-0.2-12.8-0.5c-1.3-0.2-2-0.8-2-1.8c0-4.6,0.2-11.4,0.7-20.5c0.5-9.1,0.7-15.9,0.7-20.5c0-3-0.2-9.7-0.6-20.1
		c-9.4,0.8-16.9,1.2-22.6,1.2c-0.8,0-1.1-0.2-1.1-0.6c0-0.5,0.3-2,1-4.5c0.8-2.7,1.2-4.3,1.3-4.9c0.1-1.8,0.3-3.6,0.5-5.4
		c0.3-2.9,0.9-4.3,1.7-4.3c0.1,0,0.4,0,1,0.1c7.6,0.8,18.9,1.2,33.9,1.2c4.2,0,12.1-0.4,23.5-1.1c6.1-0.4,9.2-0.6,9.3-0.6
		c0.9,0,1.5,0,1.6,0.1c0.1,0.1,0.2,0.5,0.3,1.1c0,1,0,2.5-0.1,4.3c-0.1,2-0.1,3.5-0.1,4.3c0,1,0.2,2.4,0.5,4.3
		S839.5,392.4,839.5,393.3z"/>
</g>
</svg>
