<svg xmlns="http://www.w3.org/2000/svg" viewBox="0 0 982.51 539.91"><defs><style>.cls-1{fill:#fefefe;}.cls-2{fill:#503e8d;}.cls-3{fill:#d98ef4;}</style></defs><g id="Слой_2" data-name="Слой 2"><g id="Слой_1-2" data-name="Слой 1"><path class="cls-1" d="M416.18,13.13c-2.89.68-5.75,1.79-8.67,2-22.63,1.29-44.09,7.32-64.72,16.27-55.49,24.09-83,70.15-75,127.73,5,36,19,67.48,52.89,86.28a24.76,24.76,0,0,1,3.87,3.27c-.48,2.41.7,4.4,1.81,6.3,11.6,19.83,25.2,37.89,43.09,52.77,31.11,25.88,66.84,38.81,107,40.76,22.9,1.1,44.93-3.64,66.08-11.38,40.22-14.71,70.83-41.29,91.67-78.83A115.34,115.34,0,0,0,646,228.47c2.45-.44,4.24,1.14,6.22,2.08,13.94,6.59,29.24,4.51,40.13-5.51,11.18-10.28,15-26.12,8.65-40.27-2.1-4.71-1.46-7.15,1.69-10.85a45.35,45.35,0,0,0-49.52-72.42c-6.58,2.36-11.41,1.57-15.9-3.4-5.31-17-17-30-28.33-42.74a151.89,151.89,0,0,0-60-40.79c-23.78-9-48.4-16.24-74.19-14.23C454.81,1.89,434.9,5.14,416.18,13.13Z"/><path class="cls-1" d="M199.47,429.28c4.16,1.66,4.67,4,5.93,5.8,18,25.31,10,20.08,38.56,20.92,6.67.2,8.84-2.61,8.81-8.79q-.12-32.11.13-64.23c0-4.43-1.5-6.39-6.05-6.29-7.22.15-14.44.1-21.66-.09-5.29-.15-7.9,2.06-7.81,7.45.09,5.75,0,11.5,0,17.26l-2.19.29c-1.75-2.64-3.86-5.11-5.18-8-6.68-14.31-16.49-22.46-33.28-17.77a11.37,11.37,0,0,1-3.73,0c-6.07-.39-8.76,1.62-8.67,8.49.29,21.15,0,42.29,1.23,63.44.32,5.57,2.52,7.61,7.37,8,7.72.58,15.38-.31,23.06-1.06,3.27-.31,3.44-2.23,3.45-4.56C199.48,443.53,199.47,436.88,199.47,429.28Z"/><path class="cls-1" d="M630.7,414.87h.36c0,11.19,0,22.38,0,33.56,0,4,1.12,7,5.71,7.07,17.14.36,34.34,1.51,51.36-1.39,14.56-2.48,25.4-9.8,29.31-24.94a69.19,69.19,0,0,0,1.64-24.45c-1.75-16.9-13.27-27.71-30.22-28-17.4-.28-34.82.09-52.23-.09-4.63,0-6.07,1.73-6,6.14C630.83,393.48,630.7,404.18,630.7,414.87Z"/><path class="cls-1" d="M496.52,399.94c8.09-3.05,16-3,23.84-1.43,4.58.93,6.24-.8,6.39-4.61.18-4.46-.24-8.93-.43-13.4a3.6,3.6,0,0,0-3.1-3.67c-17.44-3.17-34.92-5.84-52.14.9-9.69,3.78-15.22,11.17-15.78,21.55-.52,9.6,3.31,17.47,11.64,22.69,4.2,2.64,8.63,4.91,13,7.33,1.28.72,3.19,1.26,3,2.88-.23,2.24-2.53,2.1-4.16,2.2-7,.44-13.9.32-20.38-3.11-1.38-.74-3.33-3.06-5.05-.26-1.6,2.59,2.66,20.24,5.51,21.62,16.88,8.16,44.78,9.83,60.63-4.61,10.39-9.46,9.68-25.09-1.18-33.87a43.11,43.11,0,0,0-12.45-6.58C502.2,406.22,498.18,405.11,496.52,399.94Z"/><path class="cls-1" d="M749.26,414.56h.12c0,7.21,0,14.43,0,21.65a35.49,35.49,0,0,0,.17,3.72c1.78,17.46-1.63,15.93,16.82,16,13.94.05,27.87-.12,41.81-.19,5.43,0,7.18-1.82,5.92-7.86-1.57-7.56-5.1-10-12.35-8.57-2.41.48-5,.21-7.44.38-3.92.26-6.87-.12-6.35-5.43.42-4.25-.59-8.73,6.23-8.25a112.18,112.18,0,0,0,15.66-.24c5.12-.37,6.15-3.53,5.62-8.33-.47-4.31-.48-8-6.33-7.78-5,.18-9.95-.2-14.92-.17-4.13,0-5.46-1.54-5.36-5.89.14-6,3-8.32,8.47-8.79s10.82-1.08,16.24-1.55c1.76-.16,3.48-.07,4.23-2.2,2.06-5.81-3.47-14.15-9.68-14.17-16.92-.06-33.85.19-50.76,0-6.19-.06-8.36,2.57-8.19,8.54C749.46,395.15,749.26,404.86,749.26,414.56Z"/><path class="cls-1" d="M355.84,417.51c-.58,29.57,15.7,42.13,42.44,41.33,16.88-.51,25-8.86,24.23-22.4-.46-7.87-2.6-7.51-8.58-4.34-10.34,5.48-16.66,1.63-17.75-10.11a71.76,71.76,0,0,1-.12-11.91c1-13.13,7.12-17.56,19.89-14.76,2.57.56,6.41,3.24,7.14-1.56.7-4.55,5.24-10.29-1.87-13.76C382.21,361,355,386.39,355.84,417.51Z"/><path class="cls-1" d="M284.3,415.61h-.16c0,10.94,0,21.88,0,32.81,0,5.21,2.25,7.81,7.72,7.52,9.66-.51,19.32-.91,29-1.13,3.47-.08,5-1.51,5.06-4.88q.59-33.15,1.19-66.32c.07-4.49-2-6.84-6.81-6.76-9.94.19-19.89.31-29.82,0-5.09-.14-6.35,2-6.24,6.66C284.47,394.23,284.3,404.92,284.3,415.61Z"/><path class="cls-1" d="M599.16,415h.6c0-9.95-.25-19.9.1-29.82.21-6-1.61-8.71-8-8.44-9.18.39-18.4.42-27.58.09-5.18-.19-6.86,1.42-6.78,6.7.2,13.91-.2,27.82-.35,41.74-.08,7.44-.24,14.88-.18,22.33,0,6,2.62,9,9.22,8.4a188.46,188.46,0,0,1,25.24-.94c6.46.29,7.63-3.11,7.68-8C599.24,436.39,599.16,425.71,599.16,415Z"/><path class="cls-1" d="M90.77,517.25c.84,5.27-.3,9.8,1.27,14.06s3.58,8,9,6.92c5-1,5.92-5,5.35-9.2-1.43-10.68-.39-21.34-.07-32,.13-4.14.31-8.16-4.76-9.6-4.88-1.39-7.9.91-10.52,4.86-3,4.44-4.77,9.71-9.41,13.84-2.42-5.46-4.61-10.35-6.74-15.26-1.26-2.91-2.89-5.13-6.53-5.06-4.09.07-5.65,2.86-6.54,6.06C58.6,503.36,57,515.15,55.54,527c-.49,3.82.63,7.17,4.9,7.92,4.66.81,5.58-2.88,6.79-6.25s.75-7.69,3.6-10.79C78.87,525.4,80.36,525.38,90.77,517.25Z"/><path class="cls-1" d="M580.2,507.08a73.88,73.88,0,0,0,4.3,23.07c1.83,4.8,3.92,9.82,10.32,8.34,5.77-1.33,4.57-6.16,3.76-10.35-.52-2.75.89-4,3.13-5.13,2.5-1.27,3.63.26,4.91,1.8a17.1,17.1,0,0,0,7,5.41c3.49,1.31,7.08,1.48,9.29-2.07s0-6.07-3-7.9c-5.31-3.23-6.54-6.74-3.32-12.84,5.3-10.06,1-19.29-9.36-22.19C589.43,480.21,580.08,486.94,580.2,507.08Z"/><path class="cls-1" d="M192,503c-1.82-3.58-.45-6.25-.69-8.85-.29-3.23-1.2-5.94-4.84-6.51a5.46,5.46,0,0,0-6.61,4.68c-2,11.26-4.21,22.56-2.52,34.08a14.55,14.55,0,0,0,2.49,6.11c1.65,2.33,4.22,3.65,7.2,2.71,2.58-.82,2.75-3.25,3-5.51.25-2.47.4-5,.86-7.4.36-1.93.91-4.17,3.16-4.59s2.63,1.88,3.65,3.19c2.89,3.73,5.61,7.62,8.68,11.2,3.65,4.23,8.24,6.5,12.74,1.69,4.63-5,1.26-9.15-2.68-12.73-2.75-2.5-5.76-4.72-8.43-7.3-3.68-3.55-4.42-6.93.83-10a104.28,104.28,0,0,0,10.35-7.29c2.75-2.12,3.08-5.19,1.75-8.11s-4.16-4.19-7.47-3.57a14.8,14.8,0,0,0-7.76,4.23C201.22,493.43,196.81,498.05,192,503Z"/><path class="cls-1" d="M729.05,514.24c5.22,7.6,9.15,13.6,13.37,19.37,2.24,3.07,5.13,5.69,9.45,4.55,3.84-1,5.26-4.21,6.28-7.68,3.14-10.74,5.09-21.73,6.93-32.75.93-5.58.46-11.3-5.89-12.68-6.51-1.42-7.15,4.86-8.38,9.18s-1.51,8.81-2.52,13.16c-.51,2.19.73,5-.71,5.91-5.51-4.95-10.76-9.51-15.83-14.26-3.46-3.24-6.4-2.5-8.55,1.12-5.35,9-7.16,19-6.53,29.35.17,2.77,1.71,5.52,5.08,5.41,2.85-.09,4.27-2.44,4.77-5C727.39,525.37,728,520.79,729.05,514.24Z"/><path class="cls-1" d="M278.46,514.08c5.27,7.63,9.13,13.59,13.4,19.25,2.22,2.95,4.89,5.91,9.34,4.92s5.67-4.59,6.66-8.23a244.06,244.06,0,0,0,6.8-33.57c.63-5.16-.14-10.12-5.72-11.43-6.15-1.43-7.26,4.2-8.3,8.37-1.7,6.82-2.72,13.81-4.17,21.53-4.93-5.26-9.15-10.08-13.72-14.54-5.16-5-8.11-4.62-11.31,1.91a53.85,53.85,0,0,0-5.27,26.06c.12,3.26,1.27,6.28,4.81,6.52,3.77.26,4.78-3.15,5.37-6.08C277.17,524.66,277.57,520.45,278.46,514.08Z"/><path class="cls-1" d="M921.05,496.47c.11-5,.44-8.9-4.45-9.35s-6.57,3.72-7.11,7.2c-1.38,9-6,12.58-15.15,13.51-6,.61-7-.38-5.91-5.69.72-3.63,3.84-9-1.16-10.39s-5.82,4.86-7.67,8.44a14.38,14.38,0,0,0-.91,2.83c-1.34,4.93-2,10-7.64,12.69-2.63,1.27-3.89,5.42-.11,7.23,3.49,1.66,4.42,4.29,5.37,7.38s3.32,4,6.4,3.72,4.44-2.43,4-5.15c-1.36-9.78,5.8-9,11.81-10,4.22-.64,6.61.24,6.31,5.28a14.64,14.64,0,0,0,3.79,11c3,3.12,7.54,4.2,8.88-.7,2-7.25,3.46-15.25,3.44-22.31C921,506.66,920.3,500.82,921.05,496.47Z"/><path class="cls-1" d="M548.79,488.46c-12.47-.08-21.54,3.74-21.2,18.35a6.25,6.25,0,0,1-4.72,6.7,4.46,4.46,0,0,0-3.36,4.47c.2,2.29,2.23,3.38,4.34,3.17,3.72-.36,4.71,2,5.32,4.78,1.43,6.62,3.78,12.79,11.49,13.77,8.45,1.08,15.46-2.62,21.43-8.38a4.93,4.93,0,0,0,1.41-5.47c-.83-2.18-2.88-2.28-5-2.46-4.57-.4-8.87,1-13.24,1.77-2.5.44-4.25.78-4.72-2.47-.35-2.41-.63-4.49,2.37-5.29a48.67,48.67,0,0,0,5.72-1.66c2.74-1.1,6.23-2.16,5.73-5.84-.54-3.93-3.93-4.32-7.42-4.53-2-.12-5.67,2.61-5.79-1.72-.1-3.52,3.64-2.39,5.84-3,.72-.19,1.48-.24,2.19-.45,4.1-1.22,10.22-.92,9.8-6.92C558.57,486.64,551.9,490.05,548.79,488.46Z"/><path class="cls-1" d="M438.64,488.47c-14.16.47-19.14,5-19.91,18.2-.23,3.89-1.88,5.84-5.18,7.18-2,.8-3.26,2.42-2.78,4.68.43,2.09,2.4,2.61,4.09,2.54,3.51-.14,4.71,1.69,5.35,4.78,1.37,6.58,3.76,12.86,11.44,13.86,8.44,1.11,15.48-2.56,21.47-8.32a5.13,5.13,0,0,0,1.34-5.51c-.75-2.32-2.84-2.32-4.9-2.48-4.05-.32-7.85,1-11.78,1.43-2,.21-5,2.35-5.87-1.92-.8-3.82.78-5.42,4.34-6.18a29.09,29.09,0,0,0,6.94-2.6,4.1,4.1,0,0,0,2.29-4.35,4.58,4.58,0,0,0-3.83-4c-1.67-.36-3.46-.08-5.19-.21-1.51-.12-3.78,1.34-4.15-1.49-.3-2.29,1.5-2.83,3.34-3.08a30.09,30.09,0,0,0,3.69-.54c4.54-1.25,11.54-.84,10.58-7.66C449,486.23,442,490.15,438.64,488.47Z"/><path class="cls-1" d="M327.44,518.66a16.68,16.68,0,0,0,6.44,13.67c8.24,6.78,26.17,4.38,32.41-4.4,2.81-3.94,4.36-8.53,2.32-13.36-1.7-4-5.2-5-9.28-4.61-1.47.13-3.08.17-4-1.36-1.48-2.48,1.29-2.73,2.22-3.79,2.32-2.62,3.64-5.39,2.3-8.83-.85-2.18-2.79-2.47-4.92-2.56C343.51,492.91,327.61,507.45,327.44,518.66Z"/><path class="cls-1" d="M836.25,521.86c-5.43-.23-10.67,3-12.77-3.13-2.19-6.46,3.58-7.78,7.89-9.43,3-1.16,6.24-2,8.49-4.41s4.2-5,2.51-8.65c-1.88-4-5.52-3.25-8.44-2.45a37.62,37.62,0,0,0-17.59,10.77c-5,5.33-8,11.41-5.8,19,2.27,8,8.21,11.38,15.78,12.87,10,2,23.87-6.5,25.55-15.72.86-4.75-.79-8.79-5.28-10.29s-9.87-2.52-13.78,2.09C829.64,516.24,833.76,518,836.25,521.86Z"/><path class="cls-1" d="M28.63,487.7c-8.81.89-17,3.59-23.84,9.34-7.61,6.42-5.93,14.14,3.46,17.34,3.05,1,6.23,1.73,9.21,2.92,3.28,1.3,9.28,1.16,8.84,5.06-.56,5-6.38,2.54-10,3.15-.24,0-.5,0-.75,0-2.66.38-6.08.23-6.26,3.82-.17,3.18,1.93,5.33,5.17,6.42,6.35,2.16,16.48-1.27,21.27-7.45q6.69-8.61-2-15.47c-4.44-3.53-9.92-4.31-15.13-5.79-1.31-.38-3.35.19-3.36-1.93,0-1.61,1.6-2.35,2.9-3.06,4.77-2.6,9.73-1.28,14.59-.54,3.71.56,7.29.85,8.51-3.57,1.11-4-1.6-6.6-4.74-8.35A13.51,13.51,0,0,0,28.63,487.7Z"/><path class="cls-1" d="M138.43,535.59c12.09,0,23.26-9.71,24.71-21.45,1.07-8.68-2.41-14.16-10.36-17.49-10.9-4.57-19.35,1.23-28.72,12.62-6.51,7.91.11,14.6,2.14,21.34C127.68,535.51,133.57,535.71,138.43,535.59Z"/><path class="cls-1" d="M485.33,514.94c-2.16-5.36-3.84-9.69-5.66-14-1.21-2.84-2.84-5.73-6.55-4.71-4.22,1.16-4,4.89-3,8,3.12,9.67,6.51,19.25,10,28.78,1.1,3,2.53,6.59,6.46,6.27,3.39-.28,5.69-2.86,6.91-6.13,4.84-12.95,7-26.87,14.35-38.93,1.71-2.79.32-6.11-2.64-7.68-3.19-1.69-6.38-1.16-8.43,2.19a64,64,0,0,0-4.63,8.48C489.84,502.7,487.87,508.29,485.33,514.94Z"/><path class="cls-1" d="M642.39,532.87c.05,1.75.44,4.27,3.21,5.3a5,5,0,0,0,6.43-2.33c7.51-12.26,15-24.52,22.38-36.88,1.5-2.51,2.87-5.63-.08-8.14-3.3-2.8-6.15-.4-8.66,1.49-4.36,3.28-8.38,7-12.74,10.32s-7.81,2.42-9.71-3c-.57-1.63-1.1-3.28-1.8-4.86s-2-2.93-4.06-2.55-2.74,1.83-3.19,3.66c-1.93,7.81,3.31,18,11,20.09,4.07,1.08,3.24,2.65,1.77,5.08C644.9,524.5,642.93,528,642.39,532.87Z"/><path class="cls-1" d="M972.74,485.94a85.61,85.61,0,0,0-22.69,4.8c-4.26,1.47-11.7,1.07-10.52,7.94,1.09,6.26,7.77,3.86,12,3.71,5.72-.19,6,2,4.88,6.65-1.42,5.74-3.07,11.57-2.23,17.59.45,3.17,1.06,6.77,5.13,7.21,3.61.38,5.27-2.54,6.36-5.33a63.55,63.55,0,0,0,4.75-22.4c0-4.29,1.16-6.88,5.5-8.31,3.53-1.16,7.27-3.29,6.45-7.89C981.43,484.54,976.66,486.56,972.74,485.94Z"/><path class="cls-1" d="M252.32,510.22A30.76,30.76,0,0,0,250,497.9c-1.2-2.86-2.94-5.76-6.27-5.4s-4.11,3.74-4.53,6.8c-1.45,10.51.43,21.23-2.51,31.7-1,3.41.7,7.34,4.74,8.12,3.82.73,5.49-2.66,6.77-5.67C251.35,526,251.81,518.12,252.32,510.22Z"/><path class="cls-1" d="M795.57,512.05c.12-4.47.13-8.91-1.55-13.18-1.22-3.1-2.78-6.42-6.37-6.39-4.19,0-4.7,4.24-5,7.2-1.06,10.79,0,21.72-2.11,32.48-.63,3.15.84,6.14,4.2,7,3.54.85,5.34-1.79,6.61-4.65C794.53,527.32,795.49,519.76,795.57,512.05Z"/><path class="cls-2" d="M637.26,98.1c4.49,5,9.32,5.76,15.9,3.4a45.35,45.35,0,0,1,49.52,72.42c-3.15,3.7-3.79,6.14-1.69,10.85,6.33,14.15,2.53,30-8.65,40.27-10.89,10-26.19,12.1-40.13,5.51-2-.94-3.77-2.52-6.22-2.08-3.73-6.57-8.85-10-16.85-8.44-3.35.65-7.27.83-10.23-1.18-7.87-5.38-15.55-2.4-23.55-.53-5,1.15-6.78,3.46-7.64,8.38-5.05,28.93-26.49,43.18-54.84,36.5-3.67-.87-4.89-.36-6.43,3.18-15.14,34.74-41.2,56-78.8,62.31-23.82,4-64.89-10.52-72.89-41.94-6.53-25.62-27.32-33.48-50.2-38.11a24.76,24.76,0,0,0-3.87-3.27c-33.89-18.8-47.88-50.26-52.89-86.28-8-57.58,19.5-103.64,75-127.73,20.63-8.95,42.09-15,64.72-16.27,2.92-.17,5.78-1.28,8.66-2,.77,1.79,2.4,1.42,3.83,1.5,32.34,1.94,60.36,13.95,83.83,36.28,2.95,2.81,5.53,3.25,9.33,2.28,5.76-1.48,11.67-1.84,17.07,1.54a39.67,39.67,0,0,1-9.78,4c-5.36,1.49-6.55,3.53-3,8.7,9.59,13.81,13.92,29.47,15.29,46.19,1.22,14.79,1,29.62,1.21,46.13,12.83-9.74,24.5-8.33,35.75.31l1.52,1.52,1.49,1.49c1.6,2,2,5.24,5.45,5.26.46,0,1.42-1.36,1.32-1.49a8.56,8.56,0,0,0-6.85-3.7,1.41,1.41,0,0,0-1.49-1.49,1.44,1.44,0,0,0-1.52-1.51c.18-1.94-1.23-3.05-2.13-4.52-10.62-17.28-1.08-41.69,18.66-44.21,10.53-1.34,19.53-3.34,28-9.88C620.82,96.39,629.48,98.85,637.26,98.1Zm-136.54,7.25a4.89,4.89,0,0,0-5.13,1.87c2.05-.13,3.93-.11,5.48-1.41,8.14,2.14,15.09,5.51,15.66,15.36.48,8.3-3,15.34-7.12,22.29,7.46-3.84,9.65-10.85,11-18.17C522.72,113.61,512.38,101.56,500.72,105.35Zm13.72-5.16.51.26-.59-.17c-.49-10.15-6.13-18.12-11.23-26.31-2.18-3.5-4-1.37-5.85.43a134.9,134.9,0,0,0-16.66,19.06q-5.42,7.77-10.8,15.55c-.3-16.65,6.7-30.05,18.1-40.75,6-5.59,4.23-8-.95-12-34.1-26.35-71.73-32.31-112.66-20.06C344.09,43,317.7,56.68,299.15,82c-26.93,36.83-23.82,97.4,5.9,132.12,2.47,2.88,4.38,6.8,9,7.11,8.24,9.79,19.83,14,31.38,17.55,21.31,6.59,35.92,19.58,43.09,40.89,7.83,23.28,26.11,32.5,48.8,33.8,28.59,1.64,63.27-21.83,73.68-48.64a44.71,44.71,0,0,0,1.89-7.19c.88-4.28-1.1-4.8-4.52-3.27-5.17,2.3-6.52,7.07-8,11.9-1.2,3.92-3.76,6.73-8.3,5.65-4.35-1-6.89-3.93-6.4-8.71,2-19.82,22.86-32.37,38.38-21.18a43.29,43.29,0,0,0,16.35,7.05c16.18,3.49,30.88-7.81,31.36-24.24-5.4.79-4.67,5.92-6.41,9.07-5,9.11-12.49,9.89-18.76,1.69C537,223.17,535.11,194,543,180.54c4.4-7.52,9.37-8.46,16.36-3.07,1.11.85,2,2.47,3.65.74-4.3-9.92-10.44-12-19.2-6.39-5.54,3.55-9.58,8.64-13.77,13.59-8.29,9.8-17.3,18.71-30.17,22.26-5.3,1.46-10.27,1-12.14-5.19s2.48-8.07,7.43-9.69c19.07-6.21,28.69-26.48,21.71-46-4.7,4.34-9.69,8-15.82,9.75-15.11,4.39-27.26-4.49-27.41-20.12C473.38,114.34,490.15,99.49,514.44,100.19Zm45.62,102.9c.28,11.86-2.18,12.79,10.23,9.38,7.68-2.11,15.31-4.46,23.09-6.1,5.73-1.2,8.4-2.91,5-9.08-1.23-2.23-1.08-5.35-1.12-8.07,0-3.54,2.23-5.65,5.52-5.94a5.55,5.55,0,0,1,6.13,4.36c.52,1.92.63,3.94,1.1,5.88,2.15,8.77,10.11,14.89,18.44,14.45,3.5-.19,5.5-1.14,5.34-5.26-.17-4.58,1.82-8.68,4.1-12.62,2.09-3.59,4.56-6.22,9-4s3.68,5.87,1.69,9.52c-2.2,4-3.69,8.3-1.89,12.85,4.54,11.42,19,17,30.77,12,12-5.16,17.77-18.9,12.78-30.38-1.47-3.39-3.47-5-7.42-4.51-5,.67-9.9-.62-14.54-2.61-4.1-1.76-8.19-4.08-6-9.36,2-4.82,5.92-3.78,10.1-2.16,10.27,4,15.35,2.32,22.06-6.31A33.24,33.24,0,0,0,701,136.31c-3.32-15.09-17.23-25.68-33.52-25.51-16.08.17-24.17,7.48-27.57,24.94-.75,3.84-2.61,6.7-6.9,6.3-4-.37-5.27-3.37-5.27-7a36.31,36.31,0,0,1,5.11-19.25c2.31-3.77,1-4.75-2.68-5-8.12-.44-14.67,2.29-19,9.39-2.82,4.61-6,6.57-11.75,4.18-8.19-3.42-14.46-1.71-19.63,4.18a17.21,17.21,0,0,0-2,19.54c3.35,6.15,10.09,9.15,18.56,7.93,3.72-.53,7.14-.69,8.9,3.32,2,4.53-1.06,6.85-4.35,9-11.22,7.41-22.2,15.21-33.7,22.16C561.52,194,558.64,197.83,560.06,203.09Z"/><path class="cls-3" d="M324.56,248.64c22.88,4.63,43.67,12.49,50.2,38.11,8,31.42,49.07,45.94,72.89,41.94,37.6-6.31,63.66-27.57,78.8-62.31,1.54-3.54,2.76-4.05,6.43-3.18,28.35,6.68,49.79-7.57,54.84-36.5.86-4.92,2.69-7.23,7.64-8.38,8-1.87,15.68-4.85,23.55.53,3,2,6.88,1.83,10.23,1.18,8-1.56,13.12,1.87,16.85,8.44a115.34,115.34,0,0,1-11.81,29.79c-20.84,37.54-51.45,64.12-91.67,78.83-21.15,7.74-43.18,12.48-66.08,11.38-40.13-2-75.86-14.88-107-40.76-17.89-14.88-31.49-32.94-43.09-52.77C325.26,253,324.08,251.05,324.56,248.64Z"/><path class="cls-3" d="M569.74,160c-11.25-8.64-22.92-10.05-35.75-.31-.24-16.51,0-31.34-1.21-46.13-1.37-16.72-5.7-32.38-15.29-46.19-3.59-5.17-2.4-7.21,3-8.7a39.67,39.67,0,0,0,9.78-4c-5.4-3.38-11.31-3-17.07-1.54-3.8,1-6.38.53-9.33-2.28C480.36,28.58,452.34,16.57,420,14.63c-1.43-.08-3.06.29-3.83-1.5,18.73-8,38.64-11.24,58.61-12.79,25.79-2,50.41,5.18,74.19,14.23a151.89,151.89,0,0,1,60,40.79c11.38,12.75,23,25.77,28.33,42.74-7.78.75-16.44-1.71-23.07,3.4-8.47,6.54-17.47,8.54-28,9.88-19.74,2.52-29.28,26.93-18.66,44.21.9,1.47,2.31,2.58,2.13,4.52Z"/><path class="cls-2" d="M199.47,429.28c0,7.6,0,14.25,0,20.91,0,2.33-.18,4.25-3.45,4.56-7.68.75-15.34,1.64-23.06,1.06-4.85-.36-7-2.4-7.37-8-1.21-21.15-.94-42.29-1.23-63.44-.09-6.87,2.6-8.88,8.67-8.49a11.37,11.37,0,0,0,3.73,0c16.79-4.69,26.6,3.46,33.28,17.77,1.32,2.84,3.43,5.31,5.18,8l2.19-.29c0-5.76.07-11.51,0-17.26-.09-5.39,2.52-7.6,7.81-7.45,7.22.19,14.44.24,21.66.09,4.55-.1,6.09,1.86,6.05,6.29q-.26,32.11-.13,64.23c0,6.18-2.14,9-8.81,8.79-28.57-.84-20.59,4.39-38.56-20.92C204.14,433.32,203.63,430.94,199.47,429.28Z"/><path class="cls-2" d="M630.7,414.87c0-10.69.13-21.39-.06-32.08-.09-4.41,1.35-6.19,6-6.14,17.41.18,34.83-.19,52.23.09,16.95.27,28.47,11.08,30.22,28a69.19,69.19,0,0,1-1.64,24.45c-3.91,15.14-14.75,22.46-29.31,24.94-17,2.9-34.22,1.75-51.36,1.39-4.59-.1-5.72-3.1-5.71-7.07,0-11.18,0-22.37,0-33.56ZM670,413.82h-.4c-.29,6.46-.65,12.91-.84,19.37-.07,2.05-1.12,4.86,2.12,5.48,2.7.52,4.17-1.49,4.81-3.74a91.31,91.31,0,0,0,2-42.74c-.49-2.53-1.31-5-4.59-4.83-3.85.19-3.08,3.24-3.1,5.57C669.91,399.9,670,406.86,670,413.82Z"/><path class="cls-2" d="M496.52,399.94c1.66,5.17,5.68,6.28,9.32,7.63a43.11,43.11,0,0,1,12.45,6.58c10.86,8.78,11.57,24.41,1.18,33.87-15.85,14.44-43.75,12.77-60.63,4.61-2.85-1.38-7.11-19-5.51-21.62,1.72-2.8,3.67-.48,5.05.26,6.48,3.43,13.38,3.55,20.38,3.11,1.63-.1,3.93,0,4.16-2.2.17-1.62-1.74-2.16-3-2.88-4.33-2.42-8.76-4.69-13-7.33-8.33-5.22-12.16-13.09-11.64-22.69.56-10.38,6.09-17.77,15.78-21.55,17.22-6.74,34.7-4.07,52.14-.9a3.6,3.6,0,0,1,3.1,3.67c.19,4.47.61,8.94.43,13.4-.15,3.81-1.81,5.54-6.39,4.61C512.56,396.91,504.61,396.89,496.52,399.94Z"/><path class="cls-2" d="M749.26,414.56c0-9.7.2-19.41-.08-29.11-.17-6,2-8.6,8.19-8.54,16.91.16,33.84-.09,50.76,0,6.21,0,11.74,8.36,9.68,14.17-.75,2.13-2.47,2-4.23,2.2-5.42.47-10.82,1.08-16.24,1.55s-8.33,2.77-8.47,8.79c-.1,4.35,1.23,5.92,5.36,5.89,5,0,10,.35,14.92.17,5.85-.21,5.86,3.47,6.33,7.78.53,4.8-.5,8-5.62,8.33a112.18,112.18,0,0,1-15.66.24c-6.82-.48-5.81,4-6.23,8.25-.52,5.31,2.43,5.69,6.35,5.43,2.48-.17,5,.1,7.44-.38,7.25-1.47,10.78,1,12.35,8.57,1.26,6-.49,7.83-5.92,7.86-13.94.07-27.87.24-41.81.19-18.45-.06-15,1.47-16.82-16a35.49,35.49,0,0,1-.17-3.72c0-7.22,0-14.44,0-21.65Z"/><path class="cls-2" d="M355.84,417.51C355,386.39,382.21,361,421.22,380c7.11,3.47,2.57,9.21,1.87,13.76-.73,4.8-4.57,2.12-7.14,1.56-12.77-2.8-18.91,1.63-19.89,14.76a71.76,71.76,0,0,0,.12,11.91c1.09,11.74,7.41,15.59,17.75,10.11,6-3.17,8.12-3.53,8.58,4.34.79,13.54-7.35,21.89-24.23,22.4C371.54,459.64,355.26,447.08,355.84,417.51Z"/><path class="cls-2" d="M284.3,415.61c0-10.69.17-21.38-.08-32.06-.11-4.68,1.15-6.8,6.24-6.66,9.93.27,19.88.15,29.82,0,4.83-.08,6.88,2.27,6.81,6.76q-.55,33.17-1.19,66.32c-.06,3.37-1.59,4.8-5.06,4.88-9.67.22-19.33.62-29,1.13-5.47.29-7.73-2.31-7.72-7.52,0-10.93,0-21.87,0-32.81Z"/><path class="cls-2" d="M599.16,415c0,10.68.08,21.36,0,32,0,4.91-1.22,8.31-7.68,8a188.46,188.46,0,0,0-25.24.94c-6.6.59-9.17-2.44-9.22-8.4-.06-7.45.1-14.89.18-22.33.15-13.92.55-27.83.35-41.74-.08-5.28,1.6-6.89,6.78-6.7,9.18.33,18.4.3,27.58-.09,6.37-.27,8.19,2.47,8,8.44-.35,9.92-.1,19.87-.1,29.82Z"/><path class="cls-2" d="M90.77,517.25c-10.41,8.13-11.9,8.15-19.94.58-2.85,3.1-2.35,7.29-3.6,10.79s-2.13,7.06-6.79,6.25c-4.27-.75-5.39-4.1-4.9-7.92,1.48-11.8,3.06-23.59,6.26-35.08.89-3.2,2.45-6,6.54-6.06,3.64-.07,5.27,2.15,6.53,5.06,2.13,4.91,4.32,9.8,6.74,15.26,4.64-4.13,6.46-9.4,9.41-13.84,2.62-4,5.64-6.25,10.52-4.86,5.07,1.44,4.89,5.46,4.76,9.6-.32,10.66-1.36,21.32.07,32,.57,4.25-.37,8.2-5.35,9.2-5.4,1.09-7.42-2.69-9-6.92S91.61,522.52,90.77,517.25Z"/><path class="cls-2" d="M580.2,507.08c-.12-20.14,9.23-26.87,27-21.86,10.31,2.9,14.66,12.13,9.36,22.19-3.22,6.1-2,9.61,3.32,12.84,3,1.83,5.3,4.29,3,7.9s-5.8,3.38-9.29,2.07a17.1,17.1,0,0,1-7-5.41c-1.28-1.54-2.41-3.07-4.91-1.8-2.24,1.13-3.65,2.38-3.13,5.13.81,4.19,2,9-3.76,10.35-6.4,1.48-8.49-3.54-10.32-8.34A73.88,73.88,0,0,1,580.2,507.08Zm22-7c-.84-1.83-.17-5.51-3.33-5.44-3.92.08-3.86,3.88-3.6,6.72.24,2.62-1.64,7.33,2,7.33C600.74,508.67,601.18,503.7,602.23,500.06Z"/><path class="cls-2" d="M192,503c4.77-4.9,9.18-9.52,13.7-14a14.8,14.8,0,0,1,7.76-4.23c3.31-.62,6.08.53,7.47,3.57s1,6-1.75,8.11a104.28,104.28,0,0,1-10.35,7.29c-5.25,3.11-4.51,6.49-.83,10,2.67,2.58,5.68,4.8,8.43,7.3,3.94,3.58,7.31,7.77,2.68,12.73-4.5,4.81-9.09,2.54-12.74-1.69-3.07-3.58-5.79-7.47-8.68-11.2-1-1.31-1.5-3.59-3.65-3.19s-2.8,2.66-3.16,4.59c-.46,2.44-.61,4.93-.86,7.4-.24,2.26-.41,4.69-3,5.51-3,.94-5.55-.38-7.2-2.71a14.55,14.55,0,0,1-2.49-6.11c-1.69-11.52.53-22.82,2.52-34.08a5.46,5.46,0,0,1,6.61-4.68c3.64.57,4.55,3.28,4.84,6.51C191.59,496.7,190.22,499.37,192,503Z"/><path class="cls-2" d="M729.05,514.24c-1,6.55-1.66,11.13-2.53,15.67-.5,2.57-1.92,4.92-4.77,5-3.37.11-4.91-2.64-5.08-5.41-.63-10.36,1.18-20.32,6.53-29.35,2.15-3.62,5.09-4.36,8.55-1.12,5.07,4.75,10.32,9.31,15.83,14.26,1.44-.91.2-3.72.71-5.91,1-4.35,1.3-8.88,2.52-13.16s1.87-10.6,8.38-9.18c6.35,1.38,6.82,7.1,5.89,12.68-1.84,11-3.79,22-6.93,32.75-1,3.47-2.44,6.66-6.28,7.68-4.32,1.14-7.21-1.48-9.45-4.55C738.2,527.84,734.27,521.84,729.05,514.24Z"/><path class="cls-2" d="M278.46,514.08c-.89,6.37-1.29,10.58-2.11,14.71-.59,2.93-1.6,6.34-5.37,6.08-3.54-.24-4.69-3.26-4.81-6.52a53.85,53.85,0,0,1,5.27-26.06c3.2-6.53,6.15-6.94,11.31-1.91,4.57,4.46,8.79,9.28,13.72,14.54,1.45-7.72,2.47-14.71,4.17-21.53,1-4.17,2.15-9.8,8.3-8.37,5.58,1.31,6.35,6.27,5.72,11.43a244.06,244.06,0,0,1-6.8,33.57c-1,3.64-2.31,7.26-6.66,8.23s-7.12-2-9.34-4.92C287.59,527.67,283.73,521.71,278.46,514.08Z"/><path class="cls-2" d="M921.05,496.47c-.75,4.35-.08,10.19-.06,15.74,0,7.06-1.46,15.06-3.44,22.31-1.34,4.9-5.92,3.82-8.88.7a14.64,14.64,0,0,1-3.79-11c.3-5-2.09-5.92-6.31-5.28-6,.91-13.17.18-11.81,10,.39,2.72-.87,4.82-4,5.15s-5.43-.55-6.4-3.72-1.88-5.72-5.37-7.38c-3.78-1.81-2.52-6,.11-7.23,5.67-2.73,6.3-7.76,7.64-12.69a14.38,14.38,0,0,1,.91-2.83c1.85-3.58,2.77-9.8,7.67-8.44s1.88,6.76,1.16,10.39c-1.06,5.31-.13,6.3,5.91,5.69,9.1-.93,13.77-4.51,15.15-13.51.54-3.48,2.22-7.64,7.11-7.2S921.16,491.52,921.05,496.47Z"/><path class="cls-2" d="M548.79,488.46c3.11,1.59,9.78-1.82,10.24,4.83.42,6-5.7,5.7-9.8,6.92-.71.21-1.47.26-2.19.45-2.2.6-5.94-.53-5.84,3,.12,4.33,3.84,1.6,5.79,1.72,3.49.21,6.88.6,7.42,4.53.5,3.68-3,4.74-5.73,5.84A48.67,48.67,0,0,1,543,517.4c-3,.8-2.72,2.88-2.37,5.29.47,3.25,2.22,2.91,4.72,2.47,4.37-.78,8.67-2.17,13.24-1.77,2.07.18,4.12.28,5,2.46a4.93,4.93,0,0,1-1.41,5.47c-6,5.76-13,9.46-21.43,8.38-7.71-1-10.06-7.15-11.49-13.77-.61-2.83-1.6-5.14-5.32-4.78-2.11.21-4.14-.88-4.34-3.17a4.46,4.46,0,0,1,3.36-4.47,6.25,6.25,0,0,0,4.72-6.7C527.25,492.2,536.32,488.38,548.79,488.46Z"/><path class="cls-2" d="M438.64,488.47c3.31,1.68,10.36-2.24,11.28,4.3,1,6.82-6,6.41-10.58,7.66a30.09,30.09,0,0,1-3.69.54c-1.84.25-3.64.79-3.34,3.08.37,2.83,2.64,1.37,4.15,1.49,1.73.13,3.52-.15,5.19.21a4.58,4.58,0,0,1,3.83,4,4.1,4.1,0,0,1-2.29,4.35,29.09,29.09,0,0,1-6.94,2.6c-3.56.76-5.14,2.36-4.34,6.18.89,4.27,3.84,2.13,5.87,1.92,3.93-.39,7.73-1.75,11.78-1.43,2.06.16,4.15.16,4.9,2.48a5.13,5.13,0,0,1-1.34,5.51c-6,5.76-13,9.43-21.47,8.32-7.68-1-10.07-7.28-11.44-13.86-.64-3.09-1.84-4.92-5.35-4.78-1.69.07-3.66-.45-4.09-2.54-.48-2.26.8-3.88,2.78-4.68,3.3-1.34,4.95-3.29,5.18-7.18C419.5,493.45,424.48,488.94,438.64,488.47Z"/><path class="cls-2" d="M327.44,518.66c.17-11.21,16.07-25.75,27.5-25.24,2.13.09,4.07.38,4.92,2.56,1.34,3.44,0,6.21-2.3,8.83-.93,1.06-3.7,1.31-2.22,3.79.91,1.53,2.52,1.49,4,1.36,4.08-.37,7.58.62,9.28,4.61,2,4.83.49,9.42-2.32,13.36-6.24,8.78-24.17,11.18-32.41,4.4A16.68,16.68,0,0,1,327.44,518.66Zm26.16,2c-3.43-2.54-5.18-5-3.14-8.55.6-1,.63-1.76-.72-2.07-2.71-.64-4.78.7-6.82,2.16s-2.4,3.64-2.08,6c.36,2.61,2.11,3.79,4.57,4A13.34,13.34,0,0,0,353.6,520.64Z"/><path class="cls-2" d="M836.25,521.86c-2.49-3.82-6.61-5.62-3.44-9.36,3.91-4.61,9.15-3.62,13.78-2.09s6.14,5.54,5.28,10.29c-1.68,9.22-15.52,17.69-25.55,15.72-7.57-1.49-13.51-4.91-15.78-12.87-2.16-7.58.82-13.66,5.8-19a37.62,37.62,0,0,1,17.59-10.77c2.92-.8,6.56-1.56,8.44,2.45,1.69,3.62-.3,6.28-2.51,8.65s-5.47,3.25-8.49,4.41c-4.31,1.65-10.08,3-7.89,9.43C825.58,524.88,830.82,521.63,836.25,521.86Z"/><path class="cls-2" d="M28.63,487.7a13.51,13.51,0,0,1,7.89,1.92c3.14,1.75,5.85,4.33,4.74,8.35-1.22,4.42-4.8,4.13-8.51,3.57-4.86-.74-9.82-2.06-14.59.54-1.3.71-2.91,1.45-2.9,3.06,0,2.12,2,1.55,3.36,1.93,5.21,1.48,10.69,2.26,15.13,5.79q8.69,6.89,2,15.47c-4.79,6.18-14.92,9.61-21.27,7.45-3.24-1.09-5.34-3.24-5.17-6.42.18-3.59,3.6-3.44,6.26-3.82.25,0,.51,0,.75,0,3.59-.61,9.41,1.84,10-3.15.44-3.9-5.56-3.76-8.84-5.06-3-1.19-6.16-1.89-9.21-2.92-9.39-3.2-11.07-10.92-3.46-17.34C11.6,491.29,19.82,488.59,28.63,487.7Z"/><path class="cls-2" d="M138.43,535.58c-4.86.13-10.75-.07-12.23-5-2-6.74-8.65-13.43-2.14-21.34,9.37-11.39,17.82-17.19,28.72-12.62,7.95,3.33,11.43,8.81,10.36,17.49C161.69,525.88,150.52,535.56,138.43,535.58Zm3-13.29c5.06-.74,7.86-3.38,8.35-8.2.38-3.89-1.71-6.14-5.35-6.71-3.85-.61-11.8,5.67-11.22,9.16C133.94,521,138.65,520.53,141.42,522.29Z"/><path class="cls-2" d="M485.33,514.94c2.54-6.65,4.51-12.24,6.82-17.7a64,64,0,0,1,4.63-8.48c2.05-3.35,5.24-3.88,8.43-2.19,3,1.57,4.35,4.89,2.64,7.68-7.38,12.06-9.51,26-14.35,38.93-1.22,3.27-3.52,5.85-6.91,6.13-3.93.32-5.36-3.3-6.46-6.27-3.53-9.53-6.92-19.11-10-28.78-1-3.1-1.19-6.83,3-8,3.71-1,5.34,1.87,6.55,4.71C481.49,505.25,483.17,509.58,485.33,514.94Z"/><path class="cls-2" d="M642.39,532.87c.54-4.91,2.51-8.37,4.56-11.79,1.47-2.43,2.3-4-1.77-5.08-7.7-2.06-12.94-12.28-11-20.09.45-1.83,1.23-3.29,3.19-3.66s3.3.85,4.06,2.55,1.23,3.23,1.8,4.86c1.9,5.39,5.31,6.31,9.71,3s8.38-7,12.74-10.32c2.51-1.89,5.36-4.29,8.66-1.49,2.95,2.51,1.58,5.63.08,8.14-7.34,12.36-14.87,24.62-22.38,36.88a5,5,0,0,1-6.43,2.33C642.83,537.14,642.44,534.62,642.39,532.87Z"/><path class="cls-2" d="M972.74,485.94c3.92.62,8.69-1.4,9.66,4,.82,4.6-2.92,6.73-6.45,7.89-4.34,1.43-5.45,4-5.5,8.31a63.55,63.55,0,0,1-4.75,22.4c-1.09,2.79-2.75,5.71-6.36,5.33-4.07-.44-4.68-4-5.13-7.21-.84-6,.81-11.85,2.23-17.59,1.15-4.63.84-6.84-4.88-6.65-4.26.15-10.94,2.55-12-3.71-1.18-6.87,6.26-6.47,10.52-7.94A85.61,85.61,0,0,1,972.74,485.94Z"/><path class="cls-2" d="M252.32,510.22c-.51,7.9-1,15.81-4.13,23.23-1.28,3-2.95,6.4-6.77,5.67-4-.78-5.7-4.71-4.74-8.12,2.94-10.47,1.06-21.19,2.51-31.7.42-3.06,1.06-6.41,4.53-6.8s5.07,2.54,6.27,5.4A30.76,30.76,0,0,1,252.32,510.22Z"/><path class="cls-2" d="M795.57,512.05c-.08,7.71-1,15.27-4.21,22.41-1.27,2.86-3.07,5.5-6.61,4.65-3.36-.81-4.83-3.8-4.2-7,2.15-10.76,1.05-21.69,2.11-32.48.29-3,.8-7.17,5-7.2,3.59,0,5.15,3.29,6.37,6.39C795.7,503.14,795.69,507.58,795.57,512.05Z"/><path class="cls-3" d="M374.31,36.19C415.24,23.94,452.87,29.9,487,56.25c5.18,4,6.91,6.42.95,12-11.4,10.7-18.4,24.1-18.1,40.75q5.4-7.77,10.8-15.55A134.9,134.9,0,0,1,497.28,74.4c1.84-1.8,3.67-3.93,5.85-.43,5.1,8.19,10.74,16.16,11.23,26.31l.08-.09c-24.29-.7-41.06,14.15-40.84,36.18.15,15.63,12.3,24.51,27.41,20.12,6.13-1.78,11.12-5.41,15.82-9.75,7,19.57-2.64,39.84-21.71,46-4.95,1.62-9.31,3.45-7.43,9.69s6.84,6.65,12.14,5.19c12.87-3.55,21.88-12.46,30.17-22.26,4.19-4.95,8.23-10,13.77-13.59,8.76-5.6,14.9-3.53,19.2,6.39-1.62,1.73-2.54.11-3.65-.74-7-5.39-12-4.45-16.36,3.07-7.85,13.44-5.94,42.63,3.62,55.1,6.27,8.2,13.73,7.42,18.76-1.69,1.74-3.15,1-8.28,6.41-9.07-.48,16.43-15.18,27.73-31.36,24.24A43.29,43.29,0,0,1,524,242.07c-15.52-11.19-36.36,1.36-38.38,21.18-.49,4.78,2,7.67,6.4,8.71,4.54,1.08,7.1-1.73,8.3-5.65,1.49-4.83,2.84-9.6,8-11.9,3.42-1.53,5.4-1,4.52,3.27a44.71,44.71,0,0,1-1.89,7.19c-10.41,26.81-45.09,50.28-73.68,48.64-22.69-1.3-41-10.52-48.8-33.8-7.17-21.31-21.78-34.3-43.09-40.89-11.55-3.57-23.14-7.76-31.38-17.55a158,158,0,0,1-6.2-62.28c3.11-31.32,12.94-59.71,31.37-85.37C349.35,59.52,362.25,48.32,374.31,36.19Zm28.38,73c-20.39,2.9-32.86,14.31-37.31,33.92-6,26.57,14.85,59.57,41.36,66.33,32.93,8.41,58.21-13.27,54.14-46.9C458.75,145,450.16,130,439,116.69c-26.13-31.27-67.12-31.51-94-.83-1.24,1.41-3.72,2.74-2.21,4.87s3.54.27,5.24-.58c6.22-3.11,12.29-6.55,18.67-9.28C378.43,105.87,390.45,104.65,402.69,109.16Zm44,172.48c1-4.21-1.57-5.59-3.08-7.27-5-5.54-10.38-10.75-15.39-16.28-3.83-4.22-7.69-8.42-9.08-14.3-2.86-12-11.36-18.33-23.14-14.52-10.66,3.44-18.16.46-25.69-6.14-4.11-3.61-8.46-7-12.88-10.18-3.6-2.63-7.15-5.53-12.1-6.13a181.73,181.73,0,0,0,13.25,17.56c10.09,12,20.1,24.07,38.78,18.08,3-1,6.8-.83,8.36,3.9C412.22,266.27,430.08,272.75,446.65,281.64Zm21.19-87.85c.48,2.46-1,5.25,1.72,6.34,2.11.84,3.69-1.06,5.05-2.45,5.31-5.44,11.55-8.33,19.31-7.81,3.19.22,5.79-.66,6.08-4.79.43-6-4.92-16.86-10.24-19.72-4.83-2.6-9-1.7-12.56,2.58C470.9,175.58,469.27,184.82,467.84,193.79Z"/><path class="cls-1" d="M560.06,203.09c-1.42-5.26,1.46-9.08,7.11-12.5,11.5-7,22.48-14.75,33.7-22.16,3.29-2.17,6.33-4.49,4.35-9-1.76-4-5.18-3.85-8.9-3.32-8.47,1.22-15.21-1.78-18.56-7.93a17.21,17.21,0,0,1,2-19.54c5.17-5.89,11.44-7.6,19.63-4.18,5.7,2.39,8.93.43,11.75-4.18,4.35-7.1,10.9-9.83,19-9.39,3.67.21,5,1.19,2.68,5a36.31,36.31,0,0,0-5.11,19.25c0,3.59,1.31,6.59,5.27,7,4.29.4,6.15-2.46,6.9-6.3,3.4-17.46,11.49-24.77,27.57-24.94,16.29-.17,30.2,10.42,33.52,25.51a33.24,33.24,0,0,1-6.53,28.82c-6.71,8.63-11.79,10.29-22.06,6.31-4.18-1.62-8.08-2.66-10.1,2.16-2.22,5.28,1.87,7.6,6,9.36,4.64,2,9.51,3.28,14.54,2.61,4-.52,6,1.12,7.42,4.51,5,11.48-.73,25.22-12.78,30.38-11.75,5-26.23-.54-30.77-12-1.8-4.55-.31-8.81,1.89-12.85,2-3.65,2.83-7.2-1.69-9.52s-6.88.37-9,4c-2.28,3.94-4.27,8-4.1,12.62.16,4.12-1.84,5.07-5.34,5.26-8.33.44-16.29-5.68-18.44-14.45-.47-1.94-.58-4-1.1-5.88a5.55,5.55,0,0,0-6.13-4.36c-3.29.29-5.57,2.4-5.52,5.94,0,2.72-.11,5.84,1.12,8.07,3.38,6.17.71,7.88-5,9.08-7.78,1.64-15.41,4-23.09,6.1C557.88,215.88,560.34,215,560.06,203.09Z"/><path class="cls-1" d="M374.31,36.19c-12.06,12.13-25,23.33-35.09,37.43C320.79,99.28,311,127.67,307.85,159a158,158,0,0,0,6.2,62.28c-4.62-.31-6.53-4.23-9-7.11-29.72-34.72-32.83-95.29-5.9-132.12C317.7,56.68,344.09,43,374.31,36.19Z"/><path class="cls-1" d="M500.72,105.35c11.66-3.79,22,8.26,19.87,19.94-1.33,7.32-3.52,14.33-11,18.17,4.09-7,7.6-14,7.12-22.29-.57-9.85-7.52-13.22-15.66-15.36v-.33Z"/><path class="cls-3" d="M572.67,163.11a8.56,8.56,0,0,1,6.85,3.7c.1.13-.86,1.5-1.32,1.49-3.41,0-3.85-3.26-5.45-5.26Z"/><path class="cls-3" d="M500.72,105.35l.36.13v.33c-1.55,1.3-3.43,1.28-5.48,1.41A4.89,4.89,0,0,1,500.72,105.35Z"/><path class="cls-3" d="M514.36,100.28l.59.17-.51-.26Z"/><path class="cls-3" d="M571.18,161.62a1.41,1.41,0,0,1,1.49,1.49l.08-.07-1.49-1.49Z"/><path class="cls-3" d="M569.66,160.11a1.44,1.44,0,0,1,1.52,1.51l.08-.07L569.74,160Z"/><path class="cls-1" d="M670,413.82c0-7-.05-13.92,0-20.89,0-2.33-.75-5.38,3.1-5.57,3.28-.17,4.1,2.3,4.59,4.83a91.31,91.31,0,0,1-2,42.74c-.64,2.25-2.11,4.26-4.81,3.74-3.24-.62-2.19-3.43-2.12-5.48.19-6.46.55-12.91.84-19.37Z"/><path class="cls-1" d="M602.23,500.06c-1.05,3.64-1.49,8.61-5,8.61-3.62,0-1.74-4.71-2-7.33-.26-2.84-.32-6.64,3.6-6.72C602.06,494.55,601.39,498.23,602.23,500.06Z"/><path class="cls-1" d="M353.6,520.64a13.34,13.34,0,0,1-8.19,1.54c-2.46-.25-4.21-1.43-4.57-4-.32-2.32,0-4.47,2.08-6s4.11-2.8,6.82-2.16c1.35.31,1.32,1,.72,2.07C348.42,515.59,350.17,518.1,353.6,520.64Z"/><path class="cls-1" d="M141.42,522.29c-2.77-1.76-7.48-1.34-8.22-5.75-.58-3.49,7.37-9.77,11.22-9.16,3.64.57,5.73,2.82,5.35,6.71C149.28,518.91,146.48,521.55,141.42,522.29Z"/><path class="cls-2" d="M402.69,109.16c-12.24-4.51-24.26-3.29-35.94,1.71-6.38,2.73-12.45,6.17-18.67,9.28-1.7.85-3.69,2.76-5.24.58s1-3.46,2.21-4.87c26.85-30.68,67.84-30.44,94,.83C450.16,130,458.75,145,460.88,162.51c4.07,33.63-21.21,55.31-54.14,46.9-26.51-6.76-47.38-39.76-41.36-66.33C369.83,123.47,382.3,112.06,402.69,109.16Zm27.75,89.26c14.83-.06,25.59-20.28,22.42-39.6-3.37-20.64-24.69-41.36-39.1-37.95C448.56,137.78,458.12,179.62,430.44,198.42Z"/><path class="cls-2" d="M446.65,281.64c-16.57-8.89-34.43-15.37-41-35.28-1.56-4.73-5.32-4.88-8.36-3.9-18.68,6-28.69-6.08-38.78-18.08a181.73,181.73,0,0,1-13.25-17.56c4.95.6,8.5,3.5,12.1,6.13,4.42,3.22,8.77,6.57,12.88,10.18,7.53,6.6,15,9.58,25.69,6.14,11.78-3.81,20.28,2.47,23.14,14.52,1.39,5.88,5.25,10.08,9.08,14.3,5,5.53,10.39,10.74,15.39,16.28C445.08,276.05,447.67,277.43,446.65,281.64Z"/><path class="cls-2" d="M467.84,193.79c1.43-9,3.06-18.21,9.36-25.85,3.54-4.28,7.73-5.18,12.56-2.58,5.32,2.86,10.67,13.71,10.24,19.72-.29,4.13-2.89,5-6.08,4.79-7.76-.52-14,2.37-19.31,7.81-1.36,1.39-2.94,3.29-5.05,2.45C466.83,199,468.32,196.25,467.84,193.79Z"/><path class="cls-1" d="M430.44,198.42c27.68-18.8,18.12-60.64-16.68-77.55,14.41-3.41,35.73,17.31,39.1,37.95C456,178.14,445.27,198.36,430.44,198.42Z"/></g></g></svg>